<svg version="1.1" xmlns="http://www.w3.org/2000/svg" xmlns:xlink="http://www.w3.org/1999/xlink" width="1242" height="1388"><desc>title%20Authoring%20Workflow%0A%0Aparticipantgroup%20Multiple%20Client%20Sessions%0Aactor%20Alice%0Aparticipant%20Authoring%20Session%0Aparticipant%20AssemblyDDS%0Aend%0A%0Aparticipant%20Plexus%20Nameservice%0Aparticipant%20TrackerDDS%0Aparticipant%20Plexus%20Indexing%20Agent%0Aparticipant%20PlexusDDS%0Adatabase%20Elastic%0A%0APlexus%20Indexing%20Agent-%3E*PlexusDDS%3A%0Anote%20over%20PlexusDDS%3A%2Foffsets%5Cn%2FqueryLog%5Cn%2FqueryResultLog%0APlexus%20Indexing%20Agent-%3E*TrackerDDS%3A%0A%0APlexus%20Indexing%20Agent%3C-%3EPlexus%20Nameservice%3Aregister%2FgetPlexusContainerId%0A%0APlexus%20Indexing%20Agent%3C-%3EPlexus%20Nameservice%3Aregister%2FgetTrackerContainerId%0A%0AAuthoring%20Session%3C-Plexus%20Nameservice%3AgetTrackerContainerId%0AAuthoring%20Session-%3E*AssemblyDDS%3A%0AAuthoring%20Session-%3EAssemblyDDS%3AregisterDataBinding%0AAlice-%3EAuthoring%20Session%3Aauthor%0AAuthoring%20Session-%3EAssemblyDDS%3Amodify%0AAssemblyDDS-%3EAuthoring%20Session%3AnotifyDataChanges%0Agroup%20%232f2e7b%20loop%20%23white%0AAssemblyDDS-%3EAssemblyDDS%3AsummarizeCore%0AAssemblyDDS-%3EAssemblyDDS%3ApruneHistory%0AAssemblyDDS-%3ETrackerDDS%3AsquashChanges%20%26%20publish%0Aend%0APlexus%20Indexing%20Agent%3C-PlexusDDS%3AgetCurrentOffset%0Agroup%20%232f2e7b%20loop%20%23white%0APlexus%20Indexing%20Agent-%3ETrackerDDS%3Apoll(offset)%0APlexus%20Indexing%20Agent-%3EPlexus%20Indexing%20Agent%3AparseChangeSet%0A%0APlexus%20Indexing%20Agent-%3EElastic%3Ainsert%2Fmodify%0Agroup%20if%20success%0APlexus%20Indexing%20Agent-%3EPlexusDDS%3AsetCurrentOffset%0Aend%0Aend%20%0A</desc><defs/><g><g/><g/><g/><g/><g/><g/><g/><g/><g/><g/><g/><g/><g/><g/><g/><g/><g/><g/><g/><g/><g/><g/><g><rect fill="white" stroke="none" x="0" y="0" width="1242" height="1388"/></g><g><text fill="black" stroke="none" font-family="sans-serif" font-size="16.5pt" font-style="normal" font-weight="normal" text-decoration="normal" x="513.3369036410459" y="22.6179738" text-anchor="start" dominant-baseline="alphabetic" xml:space="preserve">Authoring Workflow</text></g><g><g><path fill="none" stroke="black" paint-order="fill stroke markers" d=" M 7.5393246000000005 46.593026028000004 L 410.6582767786973 46.593026028000004 L 410.6582767786973 1381.20426672 L 7.5393246000000005 1381.20426672 L 7.5393246000000005 46.593026028000004" stroke-miterlimit="10" stroke-width="1.2565541" stroke-dasharray=""/></g><g><text fill="black" stroke="none" font-family="sans-serif" font-size="11pt" font-style="normal" font-weight="normal" text-decoration="normal" x="122.2342148128838" y="67.70313490800001" text-anchor="start" dominant-baseline="alphabetic" xml:space="preserve">Multiple Client Sessions</text></g><rect fill="rgb(213,213,229)" stroke="none" x="282.6708455966973" y="764.4875144399999" width="502.9689766371621" height="206.57749403999992"/><rect fill="rgb(213,213,229)" stroke="none" x="680.0892778338593" y="1035.90320004" width="547.5683802482324" height="292.52579448000006"/></g><g><path fill="none" stroke="black" paint-order="fill stroke markers" d=" M 32.72448316911621 153.651435348 L 32.72448316911621 1381.20426672" stroke-miterlimit="10" stroke-width="1.2565541" stroke-dasharray="11.598960923076923,5.0262164"/><path fill="none" stroke="black" paint-order="fill stroke markers" d=" M 148.1738865966973 153.651435348 L 148.1738865966973 1381.20426672" stroke-miterlimit="10" stroke-width="1.2565541" stroke-dasharray="11.598960923076923,5.0262164"/><path fill="none" stroke="black" paint-order="fill stroke markers" d=" M 335.4461177966973 572.9886696000001 L 335.4461177966973 1381.20426672" stroke-miterlimit="10" stroke-width="1.2565541" stroke-dasharray="11.598960923076923,5.0262164"/><path fill="none" stroke="black" paint-order="fill stroke markers" d=" M 568.7110641316269 153.651435348 L 568.7110641316269 1381.20426672" stroke-miterlimit="10" stroke-width="1.2565541" stroke-dasharray="11.598960923076923,5.0262164"/><path fill="none" stroke="black" paint-order="fill stroke markers" d=" M 732.8645500338594 380.43431931599997 L 732.8645500338594 1381.20426672" stroke-miterlimit="10" stroke-width="1.2565541" stroke-dasharray="11.598960923076923,5.0262164"/><path fill="none" stroke="black" paint-order="fill stroke markers" d=" M 904.6742859360918 153.651435348 L 904.6742859360918 1381.20426672" stroke-miterlimit="10" stroke-width="1.2565541" stroke-dasharray="11.598960923076923,5.0262164"/><path fill="none" stroke="black" paint-order="fill stroke markers" d=" M 1073.6715218383242 227.08445695199998 L 1073.6715218383242 1381.20426672" stroke-miterlimit="10" stroke-width="1.2565541" stroke-dasharray="11.598960923076923,5.0262164"/><path fill="none" stroke="black" paint-order="fill stroke markers" d=" M 1174.8823858820917 153.651435348 L 1174.8823858820917 1381.20426672" stroke-miterlimit="10" stroke-width="1.2565541" stroke-dasharray="11.598960923076923,5.0262164"/></g><g><g><path fill="white" stroke="black" paint-order="fill stroke markers" d=" M 41.31931321311621 89.868749232 A 8.594830044 8.594830044 0 1 1 41.31930891570155 89.86015440338846 M 32.72448316911621 98.46357927599999 L 32.72448316911621 116.85953129999999 M 21.86785574511621 105.098184924 L 43.581110593116215 105.098184924 M 32.72448316911621 116.85953129999999 L 21.86785574511621 134.049191388 M 32.72448316911621 116.85953129999999 L 43.581110593116215 134.049191388" stroke-miterlimit="10" stroke-width="2.5633703640000003" stroke-dasharray=""/></g><g><g/><text fill="black" stroke="none" font-family="sans-serif" font-size="11pt" font-style="normal" font-weight="normal" text-decoration="normal" x="15.078649200000001" y="149.127840588" text-anchor="start" dominant-baseline="alphabetic" xml:space="preserve">Alice</text></g><path fill="none" stroke="none"/><g><path fill="white" stroke="black" paint-order="fill stroke markers" d=" M 65.44896633823244 112.939082508 L 230.89880685516215 112.939082508 L 230.89880685516215 153.651435348 L 65.44896633823244 153.651435348 L 65.44896633823244 112.939082508 Z" stroke-miterlimit="10" stroke-width="2.4125838720000004" stroke-dasharray=""/></g><g><g/><text fill="black" stroke="none" font-family="sans-serif" font-size="11pt" font-style="normal" font-weight="normal" text-decoration="normal" x="81.80930072023244" y="138.572786148" text-anchor="start" dominant-baseline="alphabetic" xml:space="preserve">Authoring Session</text></g><path fill="none" stroke="none"/><g><path fill="white" stroke="black" paint-order="fill stroke markers" d=" M 478.42364387316206 112.939082508 L 658.9984843900918 112.939082508 L 658.9984843900918 153.651435348 L 478.42364387316206 153.651435348 L 478.42364387316206 112.939082508 Z" stroke-miterlimit="10" stroke-width="2.4125838720000004" stroke-dasharray=""/></g><g><g/><text fill="black" stroke="none" font-family="sans-serif" font-size="11pt" font-style="normal" font-weight="normal" text-decoration="normal" x="494.7839782551621" y="138.572786148" text-anchor="start" dominant-baseline="alphabetic" xml:space="preserve">Plexus Nameservice</text></g><path fill="none" stroke="none"/><g><path fill="white" stroke="black" paint-order="fill stroke markers" d=" M 806.7306156776269 112.939082508 L 1002.6179561945567 112.939082508 L 1002.6179561945567 153.651435348 L 806.7306156776269 153.651435348 L 806.7306156776269 112.939082508 Z" stroke-miterlimit="10" stroke-width="2.4125838720000004" stroke-dasharray=""/></g><g><g/><text fill="black" stroke="none" font-family="sans-serif" font-size="11pt" font-style="normal" font-weight="normal" text-decoration="normal" x="823.090950059627" y="138.572786148" text-anchor="start" dominant-baseline="alphabetic" xml:space="preserve">Plexus Indexing Agent</text></g><g><path fill="white" stroke="black" paint-order="fill stroke markers" d=" M 1152.8675580500917 124.097282916 L 1152.8675580500917 92.43211959599999 L 1196.8972137140918 92.43211959599999 L 1196.8972137140918 124.097282916" stroke-miterlimit="10" stroke-width="2.5633703640000003" stroke-dasharray=""/><path fill="white" stroke="black" paint-order="fill stroke markers" d=" M 1196.8972137140918 91.3313782044 L 1196.8961129818729 91.43089563047688 L 1196.892810895289 91.53040310489408 L 1196.8873077845456 91.62989067698709 L 1196.8796041999492 91.7293483980816 L 1196.869700911852 91.82876632248838 L 1196.8575989105748 91.92813450849785 L 1196.843299406307 92.02744301937419 L 1196.8268038289877 92.1266819243491 L 1196.8081138281607 92.22584129961476 L 1196.7872312728105 92.32491122931627 L 1196.7641582511749 92.42388180654324 L 1196.7388970705374 92.52274313432041 L 1196.7114502569948 92.6214853265974 L 1196.6818205552054 92.72009850923725 L 1196.6500109281149 92.81857282100387 L 1196.6160245566593 92.91689841454816 L 1196.5798648394475 93.0150654573927 L 1196.5415353924213 93.113064132915 L 1196.5010400484932 93.21088464132919 L 1196.458382857164 93.30851720066593 L 1196.4135680841173 93.40595204775067 L 1196.366600210793 93.50317943917987 L 1196.3174839339392 93.60018965229541 L 1196.2662241651428 93.69697298615685 L 1196.2128260303377 93.79351976251142 L 1196.1572948692933 93.88982032676198 L 1196.099636235079 93.98586504893231 L 1196.0398558935105 94.08164432463026 L 1195.9779598225723 94.17714857600807 L 1195.9139542118194 94.27236825272017 L 1195.8478454617596 94.36729383287827 L 1195.7796401832131 94.46191582400344 L 1195.709345196651 94.55622476397542 L 1195.636967531513 94.65021122197881 L 1195.5625144255055 94.74386579944613 L 1195.4859933238772 94.83717913099767 L 1195.407411878674 94.93014188537805 L 1195.3267779479756 95.02274476638928 L 1195.2440995951074 95.11497851382045 L 1195.159385087836 95.20683390437365 L 1195.0726428975415 95.2983017525864 L 1194.9838816983706 95.38937291175009 L 1194.8931103663692 95.4800382748247 L 1194.8003379785948 95.57028877534947 L 1194.7055738122092 95.66011538834955 L 1194.6088273435498 95.74950913123851 L 1194.5101082471829 95.83846106471655 L 1194.4094263949357 95.92696229366446 L 1194.30679185491 96.01500396803307 L 1194.2022148904737 96.10257728372832 L 1194.0957059592365 96.18967348349165 L 1193.9872757120027 96.27628385777561 L 1193.8769349917065 96.36239974561498 L 1193.7646948323281 96.44801253549274 L 1193.6505664577899 96.53311366620123 L 1193.5345612808342 96.61769462769831 L 1193.416690901882 96.7017469619583 L 1193.2969671078731 96.78526226381784 L 1193.175401871087 96.86823218181632 L 1193.052007347946 96.95064841903108 L 1192.9267958778 97.03250273390711 L 1192.7997799816912 97.11378694108109 L 1192.6709723611036 97.19449291220006 L 1192.540385896692 97.27461257673417 L 1192.4080336469938 97.35413792278372 L 1192.2739288471237 97.43306099788039 L 1192.13808490745 97.51137390978242 L 1192.0005154122537 97.5890688272639 L 1191.861234118369 97.66613798089782 L 1191.7202549538101 97.74257366383303 L 1191.5775920163753 97.81836823256494 L 1191.4332595722399 97.89351410769984 L 1191.2872720545276 97.96800377471286 L 1191.1396440618687 98.04182978469933 L 1190.9903903569398 98.11498475511979 L 1190.8395258649864 98.18746137053817 L 1190.6870656723324 98.25925238335333 L 1190.53302502487 98.33035061452381 L 1190.3774193265353 98.40074895428572 L 1190.220264137769 98.47044036286377 L 1190.0615751739583 98.53941787117516 L 1189.9013683038677 98.60767458152657 L 1189.739659548051 98.67520366830381 L 1189.5764650772483 98.7419983786545 L 1189.4118012107713 98.80805203316328 L 1189.2456844148694 98.8733580265197 L 1189.0781313010834 98.93790982817887 L 1188.9091586245852 99.00170098301443 L 1188.7387832825018 99.06472511196404 L 1188.5670223122254 99.12697591266733 L 1188.3938928897096 99.1884471600961 L 1188.219412327753 99.24913270717684 L 1188.0435980742654 99.3090264854054 L 1187.8664677105266 99.36812250545388 L 1187.688038949425 99.42641485776953 L 1187.508329633688 99.48389771316567 L 1187.3273577340972 99.54056532340468 L 1187.145141347692 99.59641202177276 L 1186.9616986959595 99.65143222364661 L 1186.7770481230114 99.70562042705188 L 1186.5912080937514 99.75897121321341 L 1186.4041971920276 99.81147924709703 L 1186.2160341187744 99.8631392779431 L 1186.026737690142 99.91394613979159 L 1185.8363268356159 99.96389475199867 L 1185.6448205961226 100.01298011974471 L 1185.4522381221266 100.06119733453387 L 1185.2585986717147 100.10854157468485 L 1185.0639216086709 100.15500810581307 L 1184.8682264005388 100.20059228130415 L 1184.6715326166764 100.24528954277854 L 1184.4738599262982 100.28909542054731 L 1184.2752280965083 100.3320055340592 L 1184.0756569903244 100.37401559233864 L 1183.8751665646907 100.41512139441478 L 1183.6737768684827 100.45531882974169 L 1183.4715080405022 100.49460387860931 L 1183.2683803074635 100.53297261254552 L 1183.0644139819706 100.57042119470887 L 1182.8596294604858 100.60694588027238 L 1182.654047221291 100.6425430167979 L 1182.4476878224386 100.67720904460148 L 1182.2405718996965 100.71094049710919 L 1182.0327201644848 100.7437340012039 L 1181.824153401803 100.77558627756255 L 1181.6148924681543 100.80649414098403 L 1181.4049582894572 100.83645450070775 L 1181.194371858955 100.86546436072271 L 1180.983154235115 100.89352082006708 L 1180.7713265395237 100.92062107311831 L 1180.558909954774 100.94676240987368 L 1180.3459257223476 100.9719422162213 L 1180.13239514049 100.99615797420151 L 1179.9183395620814 101.01940726225868 L 1179.7037803925018 101.04168775548342 L 1179.4887390874887 101.06299722584494 L 1179.2732371509937 101.08333354241397 L 1179.0572961330308 101.10269467157579 L 1178.840937627522 101.12107867723364 L 1178.6241832701376 101.13848372100227 L 1178.4070547361323 101.1549080623918 L 1178.1895737381788 101.17035005898177 L 1177.9717620241956 101.1848081665854 L 1177.753641375173 101.19828093940397 L 1177.5352336029935 101.21076703017144 L 1177.3165605482527 101.22226519028912 L 1177.0976440780737 101.2327742699506 L 1176.8785060839214 101.24229321825665 L 1176.659168479412 101.25082108332039 L 1176.4396531981236 101.25835701236241 L 1176.2199821914014 101.26490025179609 L 1176.000177426163 101.27045014730294 L 1175.7802608827014 101.27500614389803 L 1175.5602545524882 101.2785677859855 L 1175.3401804359728 101.28113471740411 L 1175.1200605403835 101.28270668146286 L 1174.8999168775265 101.28328352096663 L 1174.6797714615846 101.28286517823199 L 1174.4596463069158 101.28145169509284 L 1174.239563425852 101.27904321289631 L 1174.0195448264985 101.27563997248865 L 1173.7996125105315 101.27124231419101 L 1173.5797884709993 101.2658506777656 L 1173.3600946901227 101.25946560237155 L 1173.1405531370967 101.25208772651108 L 1172.9211857658936 101.24371778796562 L 1172.702014513068 101.23435662372206 L 1172.483061295562 101.22400516988904 L 1172.2643480085155 101.21266446160328 L 1172.0458965230746 101.2003356329262 L 1171.8277286842058 101.18701991673035 L 1171.6098663085113 101.17271864457628 L 1171.3923311820472 101.15743324657929 L 1171.1751450581446 101.14116525126643 L 1170.958329655235 101.12391628542368 L 1170.7419066546781 101.10568807393324 L 1170.5258976985936 101.08648243960108 L 1170.310324387697 101.06630130297462 L 1170.0952082791398 101.04514668215073 L 1169.8805708843536 101.02302069257384 L 1169.6664336668991 100.99992554682447 L 1169.4528180403195 100.97586355439795 L 1169.2397453659992 100.95083712147348 L 1169.0272369510285 100.92484875067349 L 1168.8153140460718 100.8979010408134 L 1168.6039978432425 100.86999668664176 L 1168.3933094739853 100.8411384785707 L 1168.1832700069613 100.811329302397 L 1167.9739004459423 100.78057213901344 L 1167.7652217277098 100.74887006411072 L 1167.5572547199617 100.71622624786991 L 1167.3500202192258 100.68264395464543 L 1167.1435389487792 100.64812654263862 L 1166.9378315565768 100.61267746356192 L 1166.7329186131865 100.5763002622937 L 1166.5288206097318 100.53899857652377 L 1166.3255579558434 100.5007761363896 L 1166.1231509776167 100.46163676410339 L 1165.921619915581 100.42158437356973 L 1165.720984922675 100.38062296999429 L 1165.5212660622303 100.33875664948332 L 1165.3224833059667 100.29598959863395 L 1165.124656531994 100.25232609411565 L 1164.927805522825 100.20777050224247 L 1164.7319499633966 100.16232727853647 L 1164.5371094391012 100.11600096728216 L 1164.343303433829 100.06879620107206 L 1164.1505513280194 100.02071770034345 L 1163.958872396722 99.97177027290634 L 1163.76828580767 99.92195881346268 L 1163.5788106193638 99.87128830311691 L 1163.3904657791643 99.81976380887784 L 1163.2032701213986 99.76739048315194 L 1163.0172423654762 99.71417356322816 L 1162.8324011140182 99.66011837075413 L 1162.6487648509951 99.60523031120407 L 1162.4663519398805 99.54951487333817 L 1162.2851806218137 99.4929776286538 L 1162.1052690137751 99.43562423082834 L 1161.9266351067756 99.37746041515373 L 1161.7492967640576 99.3184919979631 L 1161.5732717193068 99.258724876049 L 1161.3985775748818 99.19816502607387 L 1161.2252318000508 99.13681850397218 L 1161.053251729247 99.07469144434505 L 1160.8826545603342 99.01179005984666 L 1160.7134573528874 98.94812064056306 L 1160.5456770264861 98.8836895533831 L 1160.379330359023 98.81850324136182 L 1160.2144339850265 98.7525682230761 L 1160.0510043939964 98.68589109197279 L 1159.8890579287556 98.61847851570948 L 1159.7286107838158 98.5503372354876 L 1159.5696790037578 98.4814740653784 L 1159.412278481627 98.41189589164149 L 1159.2564249573445 98.34160967203627 L 1159.102134016133 98.27062243512611 L 1158.949421086958 98.19894127957558 L 1158.798301440985 98.12657337344048 L 1158.6487901900525 98.05352595345111 L 1158.5009022851616 97.97980632428862 L 1158.3546525149789 97.90542185785446 L 1158.21005550436 97.83037999253332 L 1158.0671257128854 97.75468823244918 L 1157.9258774334148 97.67835414671498 L 1157.786324790659 97.60138536867568 L 1157.6484817397654 97.52378959514493 L 1157.5123620649247 97.44557458563544 L 1157.3779793779906 97.36674816158298 L 1157.2453471171202 97.28731820556425 L 1157.1144785454285 97.20729266050866 L 1156.985386749664 97.12667952890405 L 1156.8580846388988 97.04548687199639 L 1156.7325849432375 96.9637228089837 L 1156.6089002125454 96.88139551620418 L 1156.4870428151926 96.79851322631846 L 1156.3670249368167 96.71508422748649 L 1156.2488585791061 96.63111686253862 L 1156.132555558598 96.54661952814136 L 1156.0181275054974 96.46160067395775 L 1155.9055858625143 96.37606880180235 L 1155.794941883719 96.29003246479111 L 1155.6862066334177 96.20350026648603 L 1155.5793909850443 96.11648086003483 L 1155.474505620075 96.02898294730564 L 1155.3715610269585 95.9410152780168 L 1155.2705675000686 95.85258664886197 L 1155.1715351386738 95.76370590263035 L 1155.0744738459277 95.6743819273225 L 1154.9793933278788 95.58462365526151 L 1154.8863030924995 95.4944400621998 L 1154.7952124487358 95.40384016642152 L 1154.706130505576 95.31283302784074 L 1154.6190661711405 95.22142774709549 L 1154.5340281517902 95.12963346463766 L 1154.4510249512557 95.03745935981901 L 1154.3700648697884 94.9449146499732 L 1154.2911560033288 94.85200858949412 L 1154.2143062426978 94.75875046891036 L 1154.1395232728073 94.6651496139563 L 1154.066814571892 94.57121538463942 L 1153.9961874107616 94.47695717430436 L 1153.9276488520732 94.38238440869362 L 1153.8612057496257 94.28750654500494 L 1153.7968647476737 94.19233307094565 L 1153.734632280264 94.09687350378381 L 1153.6745145705913 94.0011373893966 L 1153.6165176303766 93.9051343013157 L 1153.5606472592658 93.80887383976989 L 1153.506909044249 93.71236563072512 L 1153.4553083591031 93.61561932492187 L 1153.405850363854 93.51864459691008 L 1153.3585400042593 93.42145114408176 L 1153.313382011316 93.3240486857012 L 1153.2703809007858 93.22644696193305 L 1153.2295409727437 93.12865573286838 L 1153.1908663111485 93.03068477754859 L 1153.1543607834342 92.93254389298755 L 1153.1200280401233 92.83424289319197 L 1153.087871514461 92.7357916081799 L 1153.0578944220738 92.63719988299778 L 1153.0300997606455 92.53847757673599 L 1153.004490309619 92.43963456154286 L 1152.9810686299184 92.34068072163757 L 1152.959837063692 92.24162595232164 L 1152.9407977340786 92.14248015898946 L 1152.9239525449955 92.04325325613773 L 1152.9093031809473 91.94395516637405 L 1152.8968511068585 91.84459581942467 L 1152.886597567926 91.74518515114146 L 1152.8785435894952 91.6457331025084 L 1152.8726899769572 91.54624961864751 L 1152.8690373156683 91.44674464782423 L 1152.8675859708917 91.34722814045277 L 1152.8683360877606 91.2477100481009 L 1152.8712875912638 91.14820032249494 L 1152.8764401862536 91.04870891452452 L 1152.8837933574748 90.94924577324754 L 1152.8933463696164 90.84982084489522 L 1152.9050982673853 90.75044407187757 L 1152.919047875601 90.65112539178904 L 1152.9351937993147 90.55187473641492 L 1152.9535344239475 90.452702030738 L 1152.9740679154522 90.35361719194621 L 1152.9967922204964 90.25463012844088 L 1153.0217050666693 90.15575073884585 L 1153.0488039627062 90.0569889110177 L 1153.0780861987405 89.9583545210569 L 1153.109548846573 89.85985743232025 L 1153.143188759965 89.76150749443454 L 1153.1790025749533 89.66331454231161 L 1153.2169867101863 89.56528839516484 L 1153.257137367282 89.46743885552725 L 1153.2994505312083 89.36977570827128 L 1153.3439219706838 89.27230871963026 L 1153.3905472386018 89.17504763622182 L 1153.4393216724745 89.07800218407327 L 1153.4902403948988 88.98118206764894 L 1153.5432983140454 88.8845969688798 L 1153.598490124166 88.78825654619523 L 1153.6558103061259 88.69217043355722 L 1153.7152531279546 88.59634823949696 L 1153.7768126454198 88.50079954615401 L 1153.8404827026204 88.40553390831809 L 1153.9062569326043 88.31056085247357 L 1153.974128758003 88.2158898758469 L 1154.0440913916907 88.12153044545686 L 1154.1161378374622 88.02749199716784 L 1154.190260890733 87.93378393474632 L 1154.2664531392595 87.84041562892045 L 1154.3447069638805 87.747396416443 L 1154.4250145392787 87.6547355991577 L 1154.5073678347633 87.56244244306907 L 1154.5917586150736 87.4705261774158 L 1154.6781784412017 87.37899599374786 L 1154.7666186712372 87.28786104500736 L 1154.8570704612307 87.1971304446132 L 1154.9495247660784 87.10681326554982 L 1155.0439723404272 87.01691853945988 L 1155.1404037395982 86.92745525574105 L 1155.2388093205318 86.83843236064718 L 1155.339179242752 86.74985875639355 L 1155.4415034693502 86.66174330026682 L 1155.545771767989 86.57409480373914 L 1155.6519737119254 86.48692203158714 L 1155.7600986810535 86.4002337010154 L 1155.8701358629667 86.31403848078472 L 1155.982074254038 86.22834499034529 L 1156.0959026605221 86.14316179897476 L 1156.2116096996729 86.05849742492127 L 1156.3291838008831 85.97436033455168 L 1156.4486132068405 85.8907589415049 L 1156.569885974704 85.80770160585058 L 1156.6929899772977 85.72519663325306 L 1156.8179129043242 85.64325227414086 L 1156.944642263595 85.5618767228816 L 1157.0731653822793 85.48107811696259 L 1157.2034694081726 85.40086453617708 L 1157.3355413109812 85.32124400181632 L 1157.4693678836243 85.24222447586739 L 1157.6049357435566 85.16381386021703 L 1157.7422313341049 85.08601999586148 L 1157.8812409258246 85.00885066212233 L 1158.0219506178723 84.93231357586865 L 1158.1643463393962 84.85641639074528 L 1158.3084138509425 84.78116669640751 L 1158.4541387458805 84.70657201776203 L 1158.601506451842 84.63263981421457 L 1158.750502232179 84.55937747892386 L 1158.9011111874381 84.48679233806239 L 1159.0533182568488 84.41489165008375 L 1159.207108219831 84.34368260499681 L 1159.3624656975169 84.27317232364676 L 1159.5193751542881 84.20336785700297 L 1159.6778208993296 84.13427618545393 L 1159.8377870881989 84.06590421810921 L 1159.9992577244104 83.99825879210859 L 1160.162216661035 83.93134667193827 L 1160.3266476023152 83.86517454875454 L 1160.4925341052935 83.79974903971456 L 1160.659859581458 83.73507668731469 L 1160.8286072984006 83.67116395873632 L 1160.99876038149 83.60801724519902 L 1161.17030181556 83.54564286132153 L 1161.3432144466096 83.48404704449024 L 1161.5174809835205 83.42323595423554 L 1161.6930839997835 83.36321567161575 L 1161.870005935244 83.30399219860912 L 1162.0482290978555 83.24557145751362 L 1162.2277356654504 83.18795929035466 L 1162.4085076875213 83.13116145830092 L 1162.5905270870169 83.07518364108832 L 1162.7737756621486 83.0200314364519 L 1162.958235088212 82.96571035956619 L 1163.143886919418 82.91222584249358 L 1163.3307125907384 82.85958323364123 L 1163.5186934197613 82.80778779722615 L 1163.7078106085607 82.75684471274882 L 1163.8980452455755 82.70675907447523 L 1164.0893783075005 82.65753589092748 L 1164.2817906611886 82.6091800843829 L 1164.475263065565 82.56169649038185 L 1164.6697761735506 82.51508985724415 L 1164.8653105339965 82.46936484559428 L 1165.0618465936298 82.42452602789531 L 1165.2593646990078 82.38057788799165 L 1165.4578450984852 82.33752482066063 L 1165.6572679441874 82.29537113117316 L 1165.8576132939957 82.254121034863 L 1166.058861113542 82.21377865670547 L 1166.2609912782123 82.17434803090471 L 1166.4639835751586 82.13583310049049 L 1166.6678177053202 82.0982377169237 L 1166.8724732854541 82.06156563971143 L 1167.077929850173 82.02582053603079 L 1167.2841668539909 81.9910059803624 L 1167.49116367338 81.95712545413278 L 1167.6988996088307 81.92418234536635 L 1167.9073538869225 81.89217994834651 L 1168.1165056624013 81.86112146328631 L 1168.3263340202639 81.83100999600836 L 1168.5368179778493 81.8018485576343 L 1168.747936486937 81.77364006428367 L 1168.9596684358523 81.74638733678229 L 1169.1719926515768 81.72009310038023 L 1169.3848879018656 81.69475998447916 L 1169.5983328973712 81.67039052236962 L 1169.8123062937718 81.64698715097748 L 1170.0267866939062 81.62455221062038 L 1170.2417526499132 81.60308794477366 L 1170.4571826653762 81.58259649984603 L 1170.673055197473 81.5630799249649 L 1170.889348659131 81.54454017177149 L 1171.1060414211834 81.52697909422567 L 1171.323111814535 81.51039844842055 L 1171.5405381323274 81.49479989240692 L 1171.7582986321097 81.48018498602735 L 1171.9763715380138 81.46655519076035 L 1172.1947350429307 81.45391186957403 L 1172.4133673106917 81.44225628679 L 1172.6322464782522 81.43158960795682 L 1172.8513506578781 81.4219128997335 L 1173.0706579393338 81.41322712978278 L 1173.2901463920741 81.40553316667443 L 1173.5097940674366 81.39883177979833 L 1173.7295790008368 81.39312363928761 L 1173.9494792139642 81.38840931595153 L 1174.1694727169813 81.38468928121854 L 1174.3895375107206 81.38196390708897 L 1174.6096515888864 81.38023346609799 L 1174.8297929402543 81.37949813128824 L 1175.0499395508723 81.3797579761926 L 1175.2700694062632 81.38101297482679 L 1175.490160493625 81.383263001692 L 1175.7101908040318 81.3865078317874 L 1175.9301383346365 81.39074714063271 L 1176.1499810908688 81.39598050430055 L 1176.3696970886367 81.40220739945894 L 1176.5892643565232 81.40942720342355 L 1176.808660937985 81.41763919421997 L 1177.0278648935462 81.426842550656 L 1177.246854302994 81.43703635240365 L 1177.4656072675705 81.44821958009125 L 1177.6841019121607 81.46039111540534 L 1177.9023163874829 81.47354974120253 L 1178.1202288722711 81.48769414163121 L 1178.3378175754585 81.50282290226312 L 1178.5550607383561 81.51893451023481 L 1178.7719366368285 81.53602735439893 L 1178.9884235834668 81.55409972548526 L 1179.2044999297566 81.57314981627178 L 1179.4201440682434 81.59317572176528 L 1179.635334434693 81.61417543939191 L 1179.8500495102483 81.63614686919739 L 1180.0642678235804 81.65908781405707 L 1180.2779679530365 81.68299597989557 L 1180.491128528782 81.70786897591621 L 1180.7037282349365 81.73370431484014 L 1180.915745811707 81.760499413155 L 1181.1271600575121 81.78825159137328 L 1181.337949831104 81.81695807430027 L 1181.5480940536802 81.84661599131162 L 1181.7575717109942 81.87722237664035 L 1181.9663618554546 81.9087741696734 L 1182.174443608221 81.9412682152578 L 1182.3817961612915 81.97470126401602 L 1182.5883987795835 82.00906997267109 L 1182.7942308030074 82.04437090438077 L 1182.9992716485324 82.0806005290813 L 1183.2035008122448 82.1177552238404 L 1183.4068978713983 82.15583127321958 L 1183.6094424864568 82.1948248696456 L 1183.8111144031272 82.23473211379132 L 1184.0118934543862 82.2755490149656 L 1184.211759562496 82.31727149151233 L 1184.4106927410119 82.35989537121861 L 1184.6086730967825 82.40341639173201 L 1184.8056808319366 82.44783020098671 L 1185.001696245865 82.49313235763883 L 1185.1966997371899 82.53931833151044 L 1185.3906718057247 82.58638350404266 L 1185.5835930544238 82.63432316875745 L 1185.7754441913232 82.68313253172826 L 1185.9662060314695 82.7328067120595 L 1186.1558594988371 82.78334074237452 L 1186.3443856282377 82.8347295693124 L 1186.5317655672152 82.88696805403328 L 1186.7179805779322 82.94005097273221 L 1186.9030120390423 82.99397301716155 L 1187.086841447554 83.04872879516181 L 1187.2694504206795 83.1043128312008 L 1187.4508206976736 83.16071956692124 L 1187.63093414166 83.21794336169658 L 1187.8097727414438 83.27597849319501 L 1187.9873186133148 83.33481915795176 L 1188.1635540028333 83.39445947194936 L 1188.3384612866073 83.45489347120615 L 1188.5120229740544 83.51611511237253 L 1188.68422170915 83.57811827333542 L 1188.8550402721646 83.64089675383038 L 1189.024461581384 83.7044442760617 L 1189.1924686948184 83.76875448533008 L 1189.3590448118966 83.8338209506682 L 1189.5241732751456 83.89963716548377 L 1189.6878375718568 83.9661965482101 L 1189.850021335737 84.03349244296444 L 1190.0107083485448 84.10151812021338 L 1190.1698825417127 84.17026677744587 L 1190.3275279979541 84.23973153985348 L 1190.483628952855 84.30990546101786 L 1190.6381697964498 84.38078152360536 L 1190.791135074783 84.45235264006881 L 1190.9425094914538 84.52461165335619 L 1191.0922779091475 84.59755133762638 L 1191.2404253511465 84.67116439897174 L 1191.3869370028303 84.7454434761475 L 1191.5317982131558 84.8203811413078 L 1191.6749944961225 84.89596990074863 L 1191.8165115322217 84.97220219565698 L 1191.9563351698678 85.0490704028669 L 1192.094451426813 85.12656683562176 L 1192.2308464915473 85.20468374434282 L 1192.3655067246775 85.28341331740432 L 1192.4984186602928 85.36274768191458 L 1192.6295690073102 85.44267890450324 L 1192.7589446508046 85.52319899211466 L 1192.886532653319 85.60429989280718 L 1193.0123202561595 85.68597349655829 L 1193.136294880671 85.76821163607572 L 1193.2584441294941 85.85100608761401 L 1193.3787557878059 85.93434857179702 L 1193.4972178245407 86.01823075444578 L 1193.6138183935936 86.10264424741193 L 1193.7285458350048 86.18758060941651 L 1193.8413886761257 86.27303134689411 L 1193.9523356327663 86.35898791484219 L 1194.0613756103235 86.44544171767558 L 1194.1684977048903 86.53238411008603 L 1194.2736912043465 86.61980639790677 L 1194.3769455894299 86.70769983898187 L 1194.478250534788 86.79605564404045 L 1194.5775959100106 86.88486497757565 L 1194.6749717806429 86.9741189587281 L 1194.7703684091794 87.0638086621741 L 1194.863776256036 87.15392511901801 L 1194.9551859805067 87.24445931768928 L 1195.0445884416947 87.33540220484345 L 1195.1319746994286 87.42674468626761 L 1195.2173360151553 87.51847762778974 L 1195.3006638528145 87.61059185619212 L 1195.3819498796918 87.70307816012867 L 1195.4611859672523 87.79592729104607 L 1195.538364191953 87.88912996410862 L 1195.6134768360362 87.98267685912666 L 1195.6865163882997 88.07655862148866 L 1195.7574755448495 88.1707658630966 L 1195.8263472098286 88.26528916330484 L 1195.8931244961284 88.36011906986212 L 1195.9578007260754 88.45524609985682 L 1196.0203694321012 88.55066074066521 L 1196.0808243573865 88.64635345090271 L 1196.13915945649 88.74231466137805 L 1196.1953688959497 88.83853477605014 L 1196.2494470548688 88.9350041729877 L 1196.3013885254766 89.03171320533143 L 1196.351188113669 89.12865220225869 L 1196.398840839529 89.22581146995057 L 1196.4443419378233 89.32318129256126 L 1196.4876868584806 89.42075193318963 L 1196.5288712670445 89.51851363485295 L 1196.5678910451084 89.6164566214625 L 1196.6047422907275 89.71457109880126 L 1196.6394213188073 89.81284725550324 L 1196.6719246614746 89.91127526403467 L 1196.7022490684215 90.00984528167672 L 1196.7303915072332 90.10854745150978 L 1196.7563491636888 90.20737190339909 L 1196.7801194420447 90.30630875498184 L 1196.8016999652923 90.4053481126553 L 1196.8210885753979 90.50448007256627 L 1196.8382833335163 90.60369472160131 L 1196.8532825201862 90.70298213837826 L 1196.866084635501 90.80233239423814 L 1196.8766883992605 90.90173555423816 L 1196.8850927510966 91.00118167814516 L 1196.8912968505813 91.10066082142963 L 1196.89530007731 91.20016303626012 L 1196.8971020309632 91.2996783724981 M 1196.8972137140918 122.9965415244 L 1196.8961129818729 123.09605895047689 L 1196.892810895289 123.19556642489408 L 1196.8873077845456 123.2950539969871 L 1196.8796041999492 123.3945117180816 L 1196.869700911852 123.49392964248838 L 1196.8575989105748 123.59329782849785 L 1196.843299406307 123.6926063393742 L 1196.8268038289877 123.7918452443491 L 1196.8081138281607 123.89100461961476 L 1196.7872312728105 123.99007454931628 L 1196.7641582511749 124.08904512654324 L 1196.7388970705374 124.18790645432041 L 1196.7114502569948 124.2866486465974 L 1196.6818205552054 124.38526182923725 L 1196.6500109281149 124.48373614100387 L 1196.6160245566593 124.58206173454816 L 1196.5798648394475 124.6802287773927 L 1196.5415353924213 124.778227452915 L 1196.5010400484932 124.87604796132919 L 1196.458382857164 124.97368052066594 L 1196.4135680841173 125.07111536775068 L 1196.366600210793 125.16834275917988 L 1196.3174839339392 125.26535297229542 L 1196.2662241651428 125.36213630615686 L 1196.2128260303377 125.45868308251143 L 1196.1572948692933 125.55498364676198 L 1196.099636235079 125.65102836893232 L 1196.0398558935105 125.74680764463027 L 1195.9779598225723 125.84231189600807 L 1195.9139542118194 125.93753157272018 L 1195.8478454617596 126.03245715287828 L 1195.7796401832131 126.12707914400345 L 1195.709345196651 126.22138808397543 L 1195.636967531513 126.31537454197881 L 1195.5625144255055 126.40902911944613 L 1195.4859933238772 126.50234245099767 L 1195.407411878674 126.59530520537805 L 1195.3267779479756 126.68790808638929 L 1195.2440995951074 126.78014183382045 L 1195.159385087836 126.87199722437366 L 1195.0726428975415 126.9634650725864 L 1194.9838816983706 127.05453623175009 L 1194.8931103663692 127.1452015948247 L 1194.8003379785948 127.23545209534947 L 1194.7055738122092 127.32527870834956 L 1194.6088273435498 127.41467245123852 L 1194.5101082471829 127.50362438471656 L 1194.4094263949357 127.59212561366446 L 1194.30679185491 127.68016728803308 L 1194.2022148904737 127.76774060372833 L 1194.0957059592365 127.85483680349165 L 1193.9872757120027 127.94144717777561 L 1193.8769349917065 128.027563065615 L 1193.7646948323281 128.11317585549273 L 1193.6505664577899 128.19827698620122 L 1193.5345612808342 128.28285794769832 L 1193.416690901882 128.3669102819583 L 1193.2969671078731 128.45042558381783 L 1193.175401871087 128.53339550181633 L 1193.052007347946 128.6158117390311 L 1192.9267958778 128.6976660539071 L 1192.7997799816912 128.7789502610811 L 1192.6709723611036 128.85965623220005 L 1192.540385896692 128.93977589673418 L 1192.4080336469938 129.01930124278374 L 1192.2739288471237 129.09822431788038 L 1192.13808490745 129.1765372297824 L 1192.0005154122537 129.2542321472639 L 1191.861234118369 129.33130130089782 L 1191.7202549538101 129.40773698383302 L 1191.5775920163753 129.48353155256495 L 1191.4332595722399 129.55867742769985 L 1191.2872720545276 129.63316709471286 L 1191.1396440618687 129.70699310469934 L 1190.9903903569398 129.7801480751198 L 1190.8395258649864 129.8526246905382 L 1190.6870656723324 129.92441570335333 L 1190.53302502487 129.9955139345238 L 1190.3774193265353 130.06591227428572 L 1190.220264137769 130.13560368286377 L 1190.0615751739583 130.20458119117518 L 1189.9013683038677 130.27283790152657 L 1189.739659548051 130.34036698830383 L 1189.5764650772483 130.4071616986545 L 1189.4118012107713 130.47321535316328 L 1189.2456844148694 130.5385213465197 L 1189.0781313010834 130.60307314817888 L 1188.9091586245852 130.66686430301445 L 1188.7387832825018 130.72988843196404 L 1188.5670223122254 130.79213923266732 L 1188.3938928897096 130.8536104800961 L 1188.219412327753 130.91429602717685 L 1188.0435980742654 130.97418980540542 L 1187.8664677105266 131.0332858254539 L 1187.688038949425 131.09157817776952 L 1187.508329633688 131.14906103316568 L 1187.3273577340972 131.20572864340468 L 1187.145141347692 131.26157534177275 L 1186.9616986959595 131.31659554364663 L 1186.7770481230114 131.3707837470519 L 1186.5912080937514 131.42413453321342 L 1186.4041971920276 131.47664256709703 L 1186.2160341187744 131.5283025979431 L 1186.026737690142 131.5791094597916 L 1185.8363268356159 131.62905807199866 L 1185.6448205961226 131.67814343974473 L 1185.4522381221266 131.7263606545339 L 1185.2585986717147 131.77370489468484 L 1185.0639216086709 131.82017142581307 L 1184.8682264005388 131.86575560130416 L 1184.6715326166764 131.91045286277853 L 1184.4738599262982 131.95425874054732 L 1184.2752280965083 131.99716885405923 L 1184.0756569903244 132.03917891233866 L 1183.8751665646907 132.0802847144148 L 1183.6737768684827 132.1204821497417 L 1183.4715080405022 132.15976719860933 L 1183.2683803074635 132.1981359325455 L 1183.0644139819706 132.23558451470888 L 1182.8596294604858 132.27210920027238 L 1182.654047221291 132.3077063367979 L 1182.4476878224386 132.3423723646015 L 1182.2405718996965 132.3761038171092 L 1182.0327201644848 132.4088973212039 L 1181.824153401803 132.44074959756256 L 1181.6148924681543 132.47165746098403 L 1181.4049582894572 132.50161782070776 L 1181.194371858955 132.53062768072272 L 1180.983154235115 132.55868414006707 L 1180.7713265395237 132.5857843931183 L 1180.558909954774 132.6119257298737 L 1180.3459257223476 132.6371055362213 L 1180.13239514049 132.6613212942015 L 1179.9183395620814 132.6845705822587 L 1179.7037803925018 132.70685107548343 L 1179.4887390874887 132.72816054584493 L 1179.2732371509937 132.74849686241396 L 1179.0572961330308 132.7678579915758 L 1178.840937627522 132.78624199723365 L 1178.6241832701376 132.80364704100228 L 1178.4070547361323 132.8200713823918 L 1178.1895737381788 132.83551337898177 L 1177.9717620241956 132.8499714865854 L 1177.753641375173 132.86344425940396 L 1177.5352336029935 132.87593035017144 L 1177.3165605482527 132.8874285102891 L 1177.0976440780737 132.8979375899506 L 1176.8785060839214 132.90745653825667 L 1176.659168479412 132.9159844033204 L 1176.4396531981236 132.92352033236241 L 1176.2199821914014 132.9300635717961 L 1176.000177426163 132.93561346730294 L 1175.7802608827014 132.94016946389803 L 1175.5602545524882 132.9437311059855 L 1175.3401804359728 132.94629803740412 L 1175.1200605403835 132.94787000146286 L 1174.8999168775265 132.94844684096665 L 1174.6797714615846 132.948028498232 L 1174.4596463069158 132.94661501509285 L 1174.239563425852 132.94420653289632 L 1174.0195448264985 132.94080329248865 L 1173.7996125105315 132.936405634191 L 1173.5797884709993 132.9310139977656 L 1173.3600946901227 132.92462892237154 L 1173.1405531370967 132.91725104651107 L 1172.9211857658936 132.9088811079656 L 1172.702014513068 132.89951994372208 L 1172.483061295562 132.88916848988904 L 1172.2643480085155 132.8778277816033 L 1172.0458965230746 132.8654989529262 L 1171.8277286842058 132.85218323673035 L 1171.6098663085113 132.8378819645763 L 1171.3923311820472 132.82259656657928 L 1171.1751450581446 132.80632857126642 L 1170.958329655235 132.78907960542367 L 1170.7419066546781 132.77085139393324 L 1170.5258976985936 132.75164575960108 L 1170.310324387697 132.73146462297464 L 1170.0952082791398 132.71031000215072 L 1169.8805708843536 132.68818401257383 L 1169.6664336668991 132.66508886682448 L 1169.4528180403195 132.64102687439797 L 1169.2397453659992 132.6160004414735 L 1169.0272369510285 132.59001207067348 L 1168.8153140460718 132.5630643608134 L 1168.6039978432425 132.53516000664175 L 1168.3933094739853 132.5063017985707 L 1168.1832700069613 132.47649262239702 L 1167.9739004459423 132.44573545901343 L 1167.7652217277098 132.41403338411072 L 1167.5572547199617 132.38138956786992 L 1167.3500202192258 132.34780727464545 L 1167.1435389487792 132.31328986263864 L 1166.9378315565768 132.27784078356194 L 1166.7329186131865 132.2414635822937 L 1166.5288206097318 132.20416189652377 L 1166.3255579558434 132.16593945638962 L 1166.1231509776167 132.1268000841034 L 1165.921619915581 132.08674769356972 L 1165.720984922675 132.0457862899943 L 1165.5212660622303 132.00391996948332 L 1165.3224833059667 131.96115291863396 L 1165.124656531994 131.91748941411564 L 1164.927805522825 131.87293382224246 L 1164.7319499633966 131.82749059853649 L 1164.5371094391012 131.78116428728217 L 1164.343303433829 131.73395952107208 L 1164.1505513280194 131.68588102034346 L 1163.958872396722 131.63693359290636 L 1163.76828580767 131.58712213346269 L 1163.5788106193638 131.5364516231169 L 1163.3904657791643 131.48492712887784 L 1163.2032701213986 131.43255380315193 L 1163.0172423654762 131.37933688322818 L 1162.8324011140182 131.32528169075414 L 1162.6487648509951 131.27039363120406 L 1162.4663519398805 131.2146781933382 L 1162.2851806218137 131.15814094865382 L 1162.1052690137751 131.10078755082833 L 1161.9266351067756 131.04262373515374 L 1161.7492967640576 130.9836553179631 L 1161.5732717193068 130.923888196049 L 1161.3985775748818 130.86332834607387 L 1161.2252318000508 130.80198182397217 L 1161.053251729247 130.73985476434507 L 1160.8826545603342 130.67695337984668 L 1160.7134573528874 130.61328396056308 L 1160.5456770264861 130.5488528733831 L 1160.379330359023 130.48366656136182 L 1160.2144339850265 130.4177315430761 L 1160.0510043939964 130.3510544119728 L 1159.8890579287556 130.2836418357095 L 1159.7286107838158 130.2155005554876 L 1159.5696790037578 130.1466373853784 L 1159.412278481627 130.07705921164148 L 1159.2564249573445 130.00677299203628 L 1159.102134016133 129.93578575512612 L 1158.949421086958 129.8641045995756 L 1158.798301440985 129.7917366934405 L 1158.6487901900525 129.71868927345113 L 1158.5009022851616 129.6449696442886 L 1158.3546525149789 129.57058517785447 L 1158.21005550436 129.49554331253333 L 1158.0671257128854 129.4198515524492 L 1157.9258774334148 129.34351746671499 L 1157.786324790659 129.2665486886757 L 1157.6484817397654 129.18895291514494 L 1157.5123620649247 129.11073790563546 L 1157.3779793779906 129.03191148158297 L 1157.2453471171202 128.95248152556425 L 1157.1144785454285 128.87245598050868 L 1156.985386749664 128.79184284890405 L 1156.8580846388988 128.7106501919964 L 1156.7325849432375 128.6288861289837 L 1156.6089002125454 128.54655883620418 L 1156.4870428151926 128.46367654631848 L 1156.3670249368167 128.3802475474865 L 1156.2488585791061 128.29628018253862 L 1156.132555558598 128.21178284814135 L 1156.0181275054974 128.12676399395775 L 1155.9055858625143 128.04123212180235 L 1155.794941883719 127.95519578479112 L 1155.6862066334177 127.86866358648604 L 1155.5793909850443 127.78164418003483 L 1155.474505620075 127.69414626730564 L 1155.3715610269585 127.60617859801681 L 1155.2705675000686 127.51774996886198 L 1155.1715351386738 127.42886922263035 L 1155.0744738459277 127.3395452473225 L 1154.9793933278788 127.24978697526151 L 1154.8863030924995 127.1596033821998 L 1154.7952124487358 127.06900348642152 L 1154.706130505576 126.97799634784074 L 1154.6190661711405 126.8865910670955 L 1154.5340281517902 126.79479678463767 L 1154.4510249512557 126.70262267981902 L 1154.3700648697884 126.6100779699732 L 1154.2911560033288 126.51717190949412 L 1154.2143062426978 126.42391378891037 L 1154.1395232728073 126.33031293395631 L 1154.066814571892 126.23637870463942 L 1153.9961874107616 126.14212049430436 L 1153.9276488520732 126.04754772869363 L 1153.8612057496257 125.95266986500495 L 1153.7968647476737 125.85749639094566 L 1153.734632280264 125.76203682378382 L 1153.6745145705913 125.66630070939661 L 1153.6165176303766 125.5702976213157 L 1153.5606472592658 125.47403715976989 L 1153.506909044249 125.37752895072512 L 1153.4553083591031 125.28078264492187 L 1153.405850363854 125.18380791691008 L 1153.3585400042593 125.08661446408176 L 1153.313382011316 124.9892120057012 L 1153.2703809007858 124.89161028193305 L 1153.2295409727437 124.79381905286839 L 1153.1908663111485 124.69584809754859 L 1153.1543607834342 124.59770721298756 L 1153.1200280401233 124.49940621319197 L 1153.087871514461 124.4009549281799 L 1153.0578944220738 124.30236320299778 L 1153.0300997606455 124.20364089673599 L 1153.004490309619 124.10479788154286 L 1152.9810686299184 124.00584404163757 L 1152.959837063692 123.90678927232165 L 1152.9407977340786 123.80764347898946 L 1152.9239525449955 123.70841657613774 L 1152.9093031809473 123.60911848637406 L 1152.8968511068585 123.50975913942467 L 1152.886597567926 123.41034847114146 L 1152.8785435894952 123.3108964225084 L 1152.8726899769572 123.21141293864751 L 1152.8690373156683 123.11190796782424 L 1152.8675859708917 123.01239146045278" stroke-miterlimit="10" stroke-width="2.5633703640000003" stroke-dasharray=""/></g><g><g/><text fill="black" stroke="none" font-family="sans-serif" font-size="11pt" font-style="normal" font-weight="normal" text-decoration="normal" x="1150.934469851208" y="149.127840588" text-anchor="start" dominant-baseline="alphabetic" xml:space="preserve">Elastic</text></g></g><g><path fill="none" stroke="none"/><g><path fill="white" stroke="black" paint-order="fill stroke markers" d=" M 1017.6966053945566 185.09041893 L 1129.6464382820918 185.09041893 L 1129.6464382820918 225.80277177 L 1017.6966053945566 225.80277177 L 1017.6966053945566 185.09041893 Z" stroke-miterlimit="10" stroke-width="2.4125838720000004" stroke-dasharray=""/></g><g><g/><text fill="black" stroke="none" font-family="sans-serif" font-size="11pt" font-style="normal" font-weight="normal" text-decoration="normal" x="1034.0569397765566" y="210.72412257" text-anchor="start" dominant-baseline="alphabetic" xml:space="preserve">PlexusDDS</text></g><g><text fill="black" stroke="none" font-family="sans-serif" font-size="11pt" font-style="normal" font-weight="normal" text-decoration="normal" x="961.1854456653242" y="199.41513566999998" text-anchor="start" dominant-baseline="alphabetic" xml:space="preserve"></text></g><g><path fill="none" stroke="black" paint-order="fill stroke markers" d=" M 904.6742859360918 205.44659535 L 1005.2818508865566 205.44659535" stroke-miterlimit="10" stroke-width="1.2565541" stroke-dasharray=""/><g transform="translate(1017.6966053945566,205.44659535) translate(-1017.6966053945566,-205.44659535)"><path fill="black" stroke="none" paint-order="stroke fill markers" d=" M 1005.1310643945566 199.16382485 L 1017.6966053945566 205.44659535 L 1005.1310643945566 211.72936585 Z"/></g></g><path fill="white" stroke="black" paint-order="fill stroke markers" d=" M 993.1447450200918 249.70243075199997 L 1140.6275143765567 249.70243075199997 L 1154.1982986565567 263.273215032 L 1154.1982986565567 314.540622312 L 993.1447450200918 314.540622312 L 993.1447450200918 249.70243075199997 M 1140.6275143765567 249.70243075199997 L 1140.6275143765567 263.273215032 L 1154.1982986565567 263.273215032" stroke-miterlimit="10" stroke-width="1.2565541" stroke-dasharray=""/><g><text fill="black" stroke="none" font-family="sans-serif" font-size="11pt" font-style="normal" font-weight="normal" text-decoration="normal" x="1014.2548539000918" y="270.812539632" text-anchor="start" dominant-baseline="alphabetic" xml:space="preserve">/offsets</text><text fill="black" stroke="none" font-family="sans-serif" font-size="11pt" font-style="normal" font-weight="normal" text-decoration="normal" x="1014.2548539000918" y="285.891188832" text-anchor="start" dominant-baseline="alphabetic" xml:space="preserve">/queryLog</text><text fill="black" stroke="none" font-family="sans-serif" font-size="11pt" font-style="normal" font-weight="normal" text-decoration="normal" x="1014.2548539000918" y="300.969838032" text-anchor="start" dominant-baseline="alphabetic" xml:space="preserve">/queryResultLog</text></g><path fill="none" stroke="none"/><g><path fill="white" stroke="black" paint-order="fill stroke markers" d=" M 674.0771335900918 338.440281294 L 791.651966477627 338.440281294 L 791.651966477627 379.152634134 L 674.0771335900918 379.152634134 L 674.0771335900918 338.440281294 Z" stroke-miterlimit="10" stroke-width="2.4125838720000004" stroke-dasharray=""/></g><g><g/><text fill="black" stroke="none" font-family="sans-serif" font-size="11pt" font-style="normal" font-weight="normal" text-decoration="normal" x="690.4374679720918" y="364.073984934" text-anchor="start" dominant-baseline="alphabetic" xml:space="preserve">TrackerDDS</text></g><g><text fill="black" stroke="none" font-family="sans-serif" font-size="11pt" font-style="normal" font-weight="normal" text-decoration="normal" x="848.1631262068594" y="352.764998034" text-anchor="start" dominant-baseline="alphabetic" xml:space="preserve"></text></g><g><path fill="none" stroke="black" paint-order="fill stroke markers" d=" M 904.6742859360918 358.796457714 L 804.066720985627 358.796457714" stroke-miterlimit="10" stroke-width="1.2565541" stroke-dasharray=""/><g transform="translate(791.651966477627,358.796457714) translate(-791.651966477627,-358.796457714)"><path fill="black" stroke="none" paint-order="stroke fill markers" d=" M 804.217507477627 352.51368721399996 L 791.651966477627 358.796457714 L 804.217507477627 365.079228214 Z"/></g></g><g><text fill="black" stroke="none" font-family="sans-serif" font-size="11pt" font-style="normal" font-weight="normal" text-decoration="normal" x="627.5468391573945" y="416.623077396" text-anchor="start" dominant-baseline="alphabetic" xml:space="preserve">register/getPlexusContainerId</text></g><g><path fill="none" stroke="black" paint-order="fill stroke markers" d=" M 892.2595314280918 422.654537076 L 581.1258186396269 422.654537076" stroke-miterlimit="10" stroke-width="1.2565541" stroke-dasharray=""/><g transform="translate(568.7110641316269,422.654537076) translate(-568.7110641316269,-422.654537076)"><path fill="black" stroke="none" paint-order="stroke fill markers" d=" M 581.276605131627 416.37176657599997 L 568.7110641316269 422.654537076 L 581.276605131627 428.937307576 Z"/><g transform="translate(904.6742859360918,422.654537076) translate(-904.6742859360918,-422.654537076)"><path fill="black" stroke="none" paint-order="stroke fill markers" d=" M 892.1087449360917 416.37176657599997 L 904.6742859360918 422.654537076 L 892.1087449360917 428.937307576 Z"/></g></g></g><g><text fill="black" stroke="none" font-family="sans-serif" font-size="11pt" font-style="normal" font-weight="normal" text-decoration="normal" x="624.7343391573945" y="458.84329515600007" text-anchor="start" dominant-baseline="alphabetic" xml:space="preserve">register/getTrackerContainerId</text></g><g><path fill="none" stroke="black" paint-order="fill stroke markers" d=" M 892.2595314280918 464.874754836 L 581.1258186396269 464.874754836" stroke-miterlimit="10" stroke-width="1.2565541" stroke-dasharray=""/><g transform="translate(568.7110641316269,464.874754836) translate(-568.7110641316269,-464.874754836)"><path fill="black" stroke="none" paint-order="stroke fill markers" d=" M 581.276605131627 458.591984336 L 568.7110641316269 464.874754836 L 581.276605131627 471.15752533600005 Z"/><g transform="translate(904.6742859360918,464.874754836) translate(-904.6742859360918,-464.874754836)"><path fill="black" stroke="none" paint-order="stroke fill markers" d=" M 892.1087449360917 458.591984336 L 904.6742859360918 464.874754836 L 892.1087449360917 471.15752533600005 Z"/></g></g></g><g><text fill="black" stroke="none" font-family="sans-serif" font-size="11pt" font-style="normal" font-weight="normal" text-decoration="normal" x="277.2445612406269" y="501.06351291600004" text-anchor="start" dominant-baseline="alphabetic" xml:space="preserve">getTrackerContainerId</text></g><g><path fill="none" stroke="black" paint-order="fill stroke markers" d=" M 568.7110641316269 507.09497259600005 L 160.58864110469727 507.09497259600005" stroke-miterlimit="10" stroke-width="1.2565541" stroke-dasharray=""/><g transform="translate(148.1738865966973,507.09497259600005) translate(-148.1738865966973,-507.09497259600005)"><path fill="black" stroke="none" paint-order="stroke fill markers" d=" M 160.73942759669728 500.812202096 L 148.1738865966973 507.09497259600005 L 160.73942759669728 513.377743096 Z"/></g></g><path fill="none" stroke="none"/><g><path fill="white" stroke="black" paint-order="fill stroke markers" d=" M 267.7732834146973 530.994631578 L 403.1189521786973 530.994631578 L 403.1189521786973 571.706984418 L 267.7732834146973 571.706984418 L 267.7732834146973 530.994631578 Z" stroke-miterlimit="10" stroke-width="2.4125838720000004" stroke-dasharray=""/></g><g><g/><text fill="black" stroke="none" font-family="sans-serif" font-size="11pt" font-style="normal" font-weight="normal" text-decoration="normal" x="284.1336177966973" y="556.6283352180001" text-anchor="start" dominant-baseline="alphabetic" xml:space="preserve">AssemblyDDS</text></g><g><text fill="black" stroke="none" font-family="sans-serif" font-size="11pt" font-style="normal" font-weight="normal" text-decoration="normal" x="207.9735850056973" y="545.319348318" text-anchor="start" dominant-baseline="alphabetic" xml:space="preserve"></text></g><g><path fill="none" stroke="black" paint-order="fill stroke markers" d=" M 148.1738865966973 551.350807998 L 255.3585289066973 551.350807998" stroke-miterlimit="10" stroke-width="1.2565541" stroke-dasharray=""/><g transform="translate(267.7732834146973,551.350807998) translate(-267.7732834146973,-551.350807998)"><path fill="black" stroke="none" paint-order="stroke fill markers" d=" M 255.2077424146973 545.0680374980001 L 267.7732834146973 551.350807998 L 255.2077424146973 557.633578498 Z"/></g></g><g><text fill="black" stroke="none" font-family="sans-serif" font-size="11pt" font-style="normal" font-weight="normal" text-decoration="normal" x="168.2787521966973" y="609.17742768" text-anchor="start" dominant-baseline="alphabetic" xml:space="preserve">registerDataBinding</text></g><g><path fill="none" stroke="black" paint-order="fill stroke markers" d=" M 148.1738865966973 615.2088873600001 L 323.0313632886973 615.2088873600001" stroke-miterlimit="10" stroke-width="1.2565541" stroke-dasharray=""/><g transform="translate(335.4461177966973,615.2088873600001) translate(-335.4461177966973,-615.2088873600001)"><path fill="black" stroke="none" paint-order="stroke fill markers" d=" M 322.8805767966973 608.9261168600001 L 335.4461177966973 615.2088873600001 L 322.8805767966973 621.49165786 Z"/></g></g><g><text fill="black" stroke="none" font-family="sans-serif" font-size="11pt" font-style="normal" font-weight="normal" text-decoration="normal" x="66.27210091379054" y="651.39764544" text-anchor="start" dominant-baseline="alphabetic" xml:space="preserve">author</text></g><g><path fill="none" stroke="black" paint-order="fill stroke markers" d=" M 32.72448316911621 657.42910512 L 135.7591320886973 657.42910512" stroke-miterlimit="10" stroke-width="1.2565541" stroke-dasharray=""/><g transform="translate(148.1738865966973,657.42910512) translate(-148.1738865966973,-657.42910512)"><path fill="black" stroke="none" paint-order="stroke fill markers" d=" M 135.6083455966973 651.1463346200001 L 148.1738865966973 657.42910512 L 135.6083455966973 663.71187562 Z"/></g></g><g><text fill="black" stroke="none" font-family="sans-serif" font-size="11pt" font-style="normal" font-weight="normal" text-decoration="normal" x="216.6745861658135" y="693.6178632" text-anchor="start" dominant-baseline="alphabetic" xml:space="preserve">modify</text></g><g><path fill="none" stroke="black" paint-order="fill stroke markers" d=" M 148.1738865966973 699.64932288 L 323.0313632886973 699.64932288" stroke-miterlimit="10" stroke-width="1.2565541" stroke-dasharray=""/><g transform="translate(335.4461177966973,699.64932288) translate(-335.4461177966973,-699.64932288)"><path fill="black" stroke="none" paint-order="stroke fill markers" d=" M 322.8805767966973 693.36655238 L 335.4461177966973 699.64932288 L 322.8805767966973 705.93209338 Z"/></g></g><g><text fill="black" stroke="none" font-family="sans-serif" font-size="11pt" font-style="normal" font-weight="normal" text-decoration="normal" x="171.5287521966973" y="735.83808096" text-anchor="start" dominant-baseline="alphabetic" xml:space="preserve">notifyDataChanges</text></g><g><path fill="none" stroke="black" paint-order="fill stroke markers" d=" M 335.4461177966973 741.86954064 L 160.58864110469727 741.86954064" stroke-miterlimit="10" stroke-width="1.2565541" stroke-dasharray=""/><g transform="translate(148.1738865966973,741.86954064) translate(-148.1738865966973,-741.86954064)"><path fill="black" stroke="none" paint-order="stroke fill markers" d=" M 160.73942759669728 735.58677014 L 148.1738865966973 741.86954064 L 160.73942759669728 748.1523111399999 Z"/></g></g><g><g><rect fill="rgb(213,213,229)" stroke="none" x="353.2891860166973" y="805.1998672799999" width="119.85693063646484" height="19.602243960000003"/></g><text fill="black" stroke="none" font-family="sans-serif" font-size="11pt" font-style="normal" font-weight="normal" text-decoration="normal" x="355.5509833966973" y="818.7706515599999" text-anchor="start" dominant-baseline="alphabetic" xml:space="preserve">summarizeCore</text></g><g><path fill="none" stroke="black" paint-order="fill stroke markers" d=" M 335.4461177966973 824.8021112399999 L 395.7607145966973 824.8021112399999 L 395.7607145966973 844.4043551999999 L 347.8608723046973 844.4043551999999" stroke-miterlimit="10" stroke-width="1.2565541" stroke-dasharray=""/><g transform="translate(335.4461177966973,844.4043551999999) translate(-335.4461177966973,-844.4043551999999)"><path fill="black" stroke="none" paint-order="stroke fill markers" d=" M 348.0116587966973 838.1215847 L 335.4461177966973 844.4043551999999 L 348.0116587966973 850.6871256999999 Z"/></g></g><g><g><rect fill="rgb(213,213,229)" stroke="none" x="353.2891860166973" y="867.0223289999999" width="99.71109476" height="19.602243960000003"/></g><text fill="black" stroke="none" font-family="sans-serif" font-size="11pt" font-style="normal" font-weight="normal" text-decoration="normal" x="355.5509833966973" y="880.5931132799999" text-anchor="start" dominant-baseline="alphabetic" xml:space="preserve">pruneHistory</text></g><g><path fill="none" stroke="black" paint-order="fill stroke markers" d=" M 335.4461177966973 886.6245729599999 L 395.7607145966973 886.6245729599999 L 395.7607145966973 906.2268169199999 L 347.8608723046973 906.2268169199999" stroke-miterlimit="10" stroke-width="1.2565541" stroke-dasharray=""/><g transform="translate(335.4461177966973,906.2268169199999) translate(-335.4461177966973,-906.2268169199999)"><path fill="black" stroke="none" paint-order="stroke fill markers" d=" M 348.0116587966973 899.94404642 L 335.4461177966973 906.2268169199999 L 348.0116587966973 912.5095874199999 Z"/></g></g><g><g><rect fill="rgb(213,213,229)" stroke="none" x="436.99770065881347" y="928.8447907199999" width="194.3152665129297" height="19.602243960000003"/></g><text fill="black" stroke="none" font-family="sans-serif" font-size="11pt" font-style="normal" font-weight="normal" text-decoration="normal" x="439.2594980388135" y="942.4155749999999" text-anchor="start" dominant-baseline="alphabetic" xml:space="preserve">squashChanges &amp; publish</text></g><g><path fill="none" stroke="black" paint-order="fill stroke markers" d=" M 335.4461177966973 948.4470346799999 L 720.4497955258594 948.4470346799999" stroke-miterlimit="10" stroke-width="1.2565541" stroke-dasharray=""/><g transform="translate(732.8645500338594,948.4470346799999) translate(-732.8645500338594,-948.4470346799999)"><path fill="black" stroke="none" paint-order="stroke fill markers" d=" M 720.2990090338593 942.1642641799999 L 732.8645500338594 948.4470346799999 L 720.2990090338593 954.7298051799999 Z"/></g></g><g><text fill="black" stroke="none" font-family="sans-serif" font-size="11pt" font-style="normal" font-weight="normal" text-decoration="normal" x="927.5583218254404" y="1007.2537665599998" text-anchor="start" dominant-baseline="alphabetic" xml:space="preserve">getCurrentOffset</text></g><g><path fill="none" stroke="black" paint-order="fill stroke markers" d=" M 1073.6715218383242 1013.2852262399998 L 917.0890404440918 1013.2852262399998" stroke-miterlimit="10" stroke-width="1.2565541" stroke-dasharray=""/><g transform="translate(904.6742859360918,1013.2852262399998) translate(-904.6742859360918,-1013.2852262399998)"><path fill="black" stroke="none" paint-order="stroke fill markers" d=" M 917.2398269360918 1007.0024557399998 L 904.6742859360918 1013.2852262399998 L 917.2398269360918 1019.5679967399998 Z"/></g></g><g><g><rect fill="rgb(213,213,229)" stroke="none" x="776.799288543208" y="1076.61555288" width="83.94025888353515" height="19.602243960000003"/></g><text fill="black" stroke="none" font-family="sans-serif" font-size="11pt" font-style="normal" font-weight="normal" text-decoration="normal" x="779.061085923208" y="1090.18633716" text-anchor="start" dominant-baseline="alphabetic" xml:space="preserve">poll(offset)</text></g><g><path fill="none" stroke="black" paint-order="fill stroke markers" d=" M 904.6742859360918 1096.21779684 L 745.2793045418593 1096.21779684" stroke-miterlimit="10" stroke-width="1.2565541" stroke-dasharray=""/><g transform="translate(732.8645500338594,1096.21779684) translate(-732.8645500338594,-1096.21779684)"><path fill="black" stroke="none" paint-order="stroke fill markers" d=" M 745.4300910338594 1089.93502634 L 732.8645500338594 1096.21779684 L 745.4300910338594 1102.5005673399999 Z"/></g></g><g><g><rect fill="rgb(213,213,229)" stroke="none" x="922.5173541560919" y="1118.83577064" width="125.79443063646484" height="19.602243960000003"/></g><text fill="black" stroke="none" font-family="sans-serif" font-size="11pt" font-style="normal" font-weight="normal" text-decoration="normal" x="924.7791515360918" y="1132.40655492" text-anchor="start" dominant-baseline="alphabetic" xml:space="preserve">parseChangeSet</text></g><g><path fill="none" stroke="black" paint-order="fill stroke markers" d=" M 904.6742859360918 1138.4380146 L 964.9888827360918 1138.4380146 L 964.9888827360918 1158.04025856 L 917.0890404440918 1158.04025856" stroke-miterlimit="10" stroke-width="1.2565541" stroke-dasharray=""/><g transform="translate(904.6742859360918,1158.04025856) translate(-904.6742859360918,-1158.04025856)"><path fill="black" stroke="none" paint-order="stroke fill markers" d=" M 917.2398269360918 1151.75748806 L 904.6742859360918 1158.04025856 L 917.2398269360918 1164.32302906 Z"/></g></g><g><g><rect fill="rgb(213,213,229)" stroke="none" x="988.9957064673242" y="1180.65823236" width="101.56525888353515" height="19.602243960000003"/></g><text fill="black" stroke="none" font-family="sans-serif" font-size="11pt" font-style="normal" font-weight="normal" text-decoration="normal" x="991.2575038473242" y="1194.22901664" text-anchor="start" dominant-baseline="alphabetic" xml:space="preserve">insert/modify</text></g><g><path fill="none" stroke="black" paint-order="fill stroke markers" d=" M 904.6742859360918 1200.26047632 L 1162.4676313740918 1200.26047632" stroke-miterlimit="10" stroke-width="1.2565541" stroke-dasharray=""/><g transform="translate(1174.8823858820917,1200.26047632) translate(-1174.8823858820917,-1200.26047632)"><path fill="black" stroke="none" paint-order="stroke fill markers" d=" M 1162.3168448820918 1193.97770582 L 1174.8823858820917 1200.26047632 L 1162.3168448820918 1206.54324682 Z"/></g></g><g><text fill="black" stroke="none" font-family="sans-serif" font-size="11pt" font-style="normal" font-weight="normal" text-decoration="normal" x="928.391653887208" y="1277.16158724" text-anchor="start" dominant-baseline="alphabetic" xml:space="preserve">setCurrentOffset</text></g><g><path fill="none" stroke="black" paint-order="fill stroke markers" d=" M 904.6742859360918 1283.19304692 L 1061.2567673303242 1283.19304692" stroke-miterlimit="10" stroke-width="1.2565541" stroke-dasharray=""/><g transform="translate(1073.6715218383242,1283.19304692) translate(-1073.6715218383242,-1283.19304692)"><path fill="black" stroke="none" paint-order="stroke fill markers" d=" M 1061.1059808383243 1276.91027642 L 1073.6715218383242 1283.19304692 L 1061.1059808383243 1289.4758174199999 Z"/></g></g><g><g/><path fill="none" stroke="black" paint-order="fill stroke markers" d=" M 282.6708455966973 764.4875144399999 L 785.6398222338594 764.4875144399999 L 785.6398222338594 971.0650084799998 L 282.6708455966973 971.0650084799998 L 282.6708455966973 764.4875144399999 Z" stroke-miterlimit="10" stroke-width="2.154092742857143" stroke-dasharray=""/><path fill="#2f2e7b" stroke="black" paint-order="fill stroke markers" d=" M 282.6708455966973 764.4875144399999 L 282.6708455966973 782.58189348 L 341.3698100275811 782.58189348 L 350.4169995475811 773.5347039599999 L 350.4169995475811 764.4875144399999 L 282.6708455966973 764.4875144399999" stroke-miterlimit="10" stroke-width="2.154092742857143" stroke-dasharray=""/><text fill="white" stroke="none" font-family="sans-serif" font-size="8.8pt" font-style="normal" font-weight="bold" text-decoration="normal" x="297.74949479669726" y="776.5504338" text-anchor="start" dominant-baseline="alphabetic" xml:space="preserve">loop</text></g><g><g/><path fill="none" stroke="black" paint-order="fill stroke markers" d=" M 680.0892778338593 1035.90320004 L 1227.6576580820918 1035.90320004 L 1227.6576580820918 1328.42899452 L 680.0892778338593 1328.42899452 L 680.0892778338593 1035.90320004 Z" stroke-miterlimit="10" stroke-width="2.154092742857143" stroke-dasharray=""/><path fill="#2f2e7b" stroke="black" paint-order="fill stroke markers" d=" M 680.0892778338593 1035.90320004 L 680.0892778338593 1053.99757908 L 738.7882422647431 1053.99757908 L 747.835431784743 1044.95038956 L 747.835431784743 1035.90320004 L 680.0892778338593 1035.90320004" stroke-miterlimit="10" stroke-width="2.154092742857143" stroke-dasharray=""/><text fill="white" stroke="none" font-family="sans-serif" font-size="8.8pt" font-style="normal" font-weight="bold" text-decoration="normal" x="695.1679270338593" y="1047.9661194" text-anchor="start" dominant-baseline="alphabetic" xml:space="preserve">loop</text></g><g><g/><path fill="none" stroke="black" paint-order="fill stroke markers" d=" M 851.8990137360918 1222.87845012 L 1126.4467940383242 1222.87845012 L 1126.4467940383242 1305.81102072 L 851.8990137360918 1305.81102072 L 851.8990137360918 1222.87845012 Z" stroke-miterlimit="10" stroke-width="2.154092742857143" stroke-dasharray=""/><path fill="white" stroke="black" paint-order="fill stroke markers" d=" M 851.8990137360918 1222.87845012 L 851.8990137360918 1240.97282916 L 946.4313121360917 1240.97282916 L 955.4785016560917 1231.92563964 L 955.4785016560917 1222.87845012 L 851.8990137360918 1222.87845012" stroke-miterlimit="10" stroke-width="2.154092742857143" stroke-dasharray=""/><text fill="black" stroke="none" font-family="sans-serif" font-size="8.8pt" font-style="normal" font-weight="bold" text-decoration="normal" x="866.9776629360917" y="1234.94136948" text-anchor="start" dominant-baseline="alphabetic" xml:space="preserve">if success</text></g></g><g/><g/><g/><g/><g/></g></svg>