<svg version="1.1" xmlns="http://www.w3.org/2000/svg" xmlns:xlink="http://www.w3.org/1999/xlink" width="912" height="901"><desc>title%20Search%20Workflow%0A%0Aactor%20Alice%0Aparticipant%20Search%20Client%0A%0Aparticipant%20Plexus%20Nameservice%0Aparticipant%20Plexus%20Search%20Agent%0Aparticipant%20PlexusDDS%0Adatabase%20Elastic%0A%0APlexus%20Search%20Agent-%3E*PlexusDDS%3A%0A%0Anote%20over%20PlexusDDS%3A%2Foffsets%5Cn%2FqueryLog%5Cn%2FqueryResultLog%0A%0APlexus%20Search%20Agent%3C-%3EPlexus%20Nameservice%3Aregister%2FgetPlexusContainerId%0A%0APlexus%20Search%20Agent%3C-%3EPlexus%20Nameservice%3Aregister%2FgetTrackerContainerId%0A%0APlexus%20Search%20Agent-%3EPlexusDDS%3AregisterQueryBinder%0A%0ASearch%20Client%3C-Plexus%20Nameservice%3AgetPlexusContainerId%0ASearch%20Client-%3EPlexusDDS%3AregisterQueryResultBinder%0AAlice-%3ESearch%20Client%3Asearch%0ASearch%20Client-%3EPlexusDDS%3AsendQuery%0A%0APlexusDDS-%3EPlexus%20Search%20Agent%3AnotifyQuery%0APlexus%20Search%20Agent-%3EPlexus%20Search%20Agent%3AparseQuery%0APlexus%20Search%20Agent%3C-%3EElastic%3AperformQuery%0APlexus%20Search%20Agent-%3EPlexusDDS%3AsendQueryResults%0APlexusDDS-%3ESearch%20Client%3AnotifyQueryResults%0ASearch%20Client-%3EAlice%3Aresults</desc><defs/><g><g/><g/><g/><g/><g/><g/><g/><g/><g/><g/><g/><g/><g/><g/><g/><g/><g/><g><rect fill="white" stroke="none" x="0" y="0" width="912" height="901"/></g><g><text fill="black" stroke="none" font-family="sans-serif" font-size="16.5pt" font-style="normal" font-weight="normal" text-decoration="normal" x="364.31999441288383" y="22.6179738" text-anchor="start" dominant-baseline="alphabetic" xml:space="preserve">Search Workflow</text></g><g/><g><path fill="none" stroke="black" paint-order="fill stroke markers" d=" M 25.18515856911621 118.97054218800001 L 25.18515856911621 901.100076192" stroke-miterlimit="10" stroke-width="1.2565541" stroke-dasharray="11.598960923076923,5.0262164"/><path fill="none" stroke="black" paint-order="fill stroke markers" d=" M 123.040808182 118.97054218800001 L 123.040808182 901.100076192" stroke-miterlimit="10" stroke-width="1.2565541" stroke-dasharray="11.598960923076923,5.0262164"/><path fill="none" stroke="black" paint-order="fill stroke markers" d=" M 320.0213676290703 118.97054218800001 L 320.0213676290703 901.100076192" stroke-miterlimit="10" stroke-width="1.2565541" stroke-dasharray="11.598960923076923,5.0262164"/><path fill="none" stroke="black" paint-order="fill stroke markers" d=" M 584.147770582 118.97054218800001 L 584.147770582 901.100076192" stroke-miterlimit="10" stroke-width="1.2565541" stroke-dasharray="11.598960923076923,5.0262164"/><path fill="none" stroke="black" paint-order="fill stroke markers" d=" M 773.3366735349297 192.403563792 L 773.3366735349297 901.100076192" stroke-miterlimit="10" stroke-width="1.2565541" stroke-dasharray="11.598960923076923,5.0262164"/><path fill="none" stroke="black" paint-order="fill stroke markers" d=" M 874.5475375786973 118.97054218800001 L 874.5475375786973 901.100076192" stroke-miterlimit="10" stroke-width="1.2565541" stroke-dasharray="11.598960923076923,5.0262164"/></g><g><g><path fill="white" stroke="black" paint-order="fill stroke markers" d=" M 33.77998861311621 55.18785607200001 A 8.594830044 8.594830044 0 1 1 33.77998431570155 55.179261243388474 M 25.18515856911621 63.78268611600001 L 25.18515856911621 82.17863814 M 14.32853114511621 70.41729176400001 L 36.041785993116214 70.41729176400001 M 25.18515856911621 82.17863814 L 14.32853114511621 99.36829822800001 M 25.18515856911621 82.17863814 L 36.041785993116214 99.36829822800001" stroke-miterlimit="10" stroke-width="2.5633703640000003" stroke-dasharray=""/></g><g><g/><text fill="black" stroke="none" font-family="sans-serif" font-size="11pt" font-style="normal" font-weight="normal" text-decoration="normal" x="7.5393246000000005" y="114.44694742800002" text-anchor="start" dominant-baseline="alphabetic" xml:space="preserve">Alice</text></g><path fill="none" stroke="none"/><g><path fill="white" stroke="black" paint-order="fill stroke markers" d=" M 57.90964173823242 78.258189348 L 188.17197462576758 78.258189348 L 188.17197462576758 118.970542188 L 57.90964173823242 118.970542188 L 57.90964173823242 78.258189348 Z" stroke-miterlimit="10" stroke-width="2.4125838720000004" stroke-dasharray=""/></g><g><g/><text fill="black" stroke="none" font-family="sans-serif" font-size="11pt" font-style="normal" font-weight="normal" text-decoration="normal" x="74.26997612023243" y="103.89189298800001" text-anchor="start" dominant-baseline="alphabetic" xml:space="preserve">Search Client</text></g><path fill="none" stroke="none"/><g><path fill="white" stroke="black" paint-order="fill stroke markers" d=" M 229.73394737060545 78.258189348 L 410.3087878875351 78.258189348 L 410.3087878875351 118.970542188 L 229.73394737060545 118.970542188 L 229.73394737060545 78.258189348 Z" stroke-miterlimit="10" stroke-width="2.4125838720000004" stroke-dasharray=""/></g><g><g/><text fill="black" stroke="none" font-family="sans-serif" font-size="11pt" font-style="normal" font-weight="normal" text-decoration="normal" x="246.09428175260547" y="103.89189298800001" text-anchor="start" dominant-baseline="alphabetic" xml:space="preserve">Plexus Nameservice</text></g><path fill="none" stroke="none"/><g><path fill="white" stroke="black" paint-order="fill stroke markers" d=" M 492.54785032353516 78.258189348 L 675.7476908404649 78.258189348 L 675.7476908404649 118.970542188 L 492.54785032353516 118.970542188 L 492.54785032353516 78.258189348 Z" stroke-miterlimit="10" stroke-width="2.4125838720000004" stroke-dasharray=""/></g><g><g/><text fill="black" stroke="none" font-family="sans-serif" font-size="11pt" font-style="normal" font-weight="normal" text-decoration="normal" x="508.9081847055352" y="103.89189298800001" text-anchor="start" dominant-baseline="alphabetic" xml:space="preserve">Plexus Search Agent</text></g><g><path fill="white" stroke="black" paint-order="fill stroke markers" d=" M 852.5327097466973 89.41638975600002 L 852.5327097466973 57.75122643600001 L 896.5623654106973 57.75122643600001 L 896.5623654106973 89.41638975600002" stroke-miterlimit="10" stroke-width="2.5633703640000003" stroke-dasharray=""/><path fill="white" stroke="black" paint-order="fill stroke markers" d=" M 896.5623654106973 56.65048504440001 L 896.5612646784786 56.750002470476886 L 896.5579625918945 56.849509944894095 L 896.552459481151 56.9489975169871 L 896.5447558965548 57.04845523808161 L 896.5348526084576 57.147873162488395 L 896.5227506071802 57.24724134849785 L 896.5084511029127 57.3465498593742 L 896.4919555255933 57.4457887643491 L 896.4732655247662 57.54494813961476 L 896.4523829694159 57.64401806931628 L 896.4293099477806 57.74298864654325 L 896.404048767143 57.841849974320425 L 896.3766019536002 57.940592166597405 L 896.3469722518108 58.03920534923725 L 896.3151626247203 58.13767966100388 L 896.2811762532648 58.23600525454817 L 896.2450165360532 58.334172297392705 L 896.2066870890269 58.43217097291501 L 896.1661917450989 58.529991481329205 L 896.1235345537697 58.62762404066595 L 896.0787197807228 58.72505888775068 L 896.0317519073985 58.82228627917988 L 895.9826356305448 58.91929649229543 L 895.9313758617483 59.01607982615686 L 895.8779777269433 59.11262660251144 L 895.8224465658989 59.20892716676198 L 895.7647879316847 59.304971888932315 L 895.7050075901162 59.400751164630265 L 895.6431115191778 59.49625541600807 L 895.5791059084248 59.59147509272019 L 895.5129971583652 59.68640067287828 L 895.4447918798188 59.78102266400345 L 895.3744968932565 59.87533160397543 L 895.3021192281186 59.969318061978825 L 895.2276661221111 60.06297263944614 L 895.1511450204827 60.15628597099768 L 895.0725635752797 60.24924872537805 L 894.9919296445812 60.34185160638929 L 894.9092512917131 60.43408535382045 L 894.8245367844416 60.52594074437366 L 894.7377945941471 60.617408592586415 L 894.6490333949761 60.708479751750104 L 894.5582620629747 60.79914511482471 L 894.4654896752004 60.88939561534948 L 894.3707255088148 60.97922222834956 L 894.2739790401554 61.06861597123853 L 894.1752599437884 61.15756790471657 L 894.0745780915414 61.24606913366447 L 893.9719435515156 61.33411080803308 L 893.8673665870793 61.42168412372834 L 893.7608576558421 61.50878032349165 L 893.6524274086082 61.59539069777562 L 893.542086688312 61.68150658561499 L 893.4298465289337 61.76711937549275 L 893.3157181543954 61.85222050620124 L 893.1997129774397 61.93680146769832 L 893.0818425984876 62.02085380195832 L 892.9621188044787 62.104369103817845 L 892.8405535676926 62.18733902181633 L 892.7171590445517 62.2697552590311 L 892.5919475744056 62.35160957390711 L 892.4649316782968 62.4328937810811 L 892.3361240577093 62.51359975220007 L 892.2055375932975 62.59371941673418 L 892.0731853435993 62.67324476278373 L 891.9390805437292 62.7521678378804 L 891.8032366040557 62.83048074978243 L 891.6656671088591 62.908175667263905 L 891.5263858149747 62.98524482089782 L 891.3854066504156 63.06168050383303 L 891.2427437129809 63.13747507256495 L 891.0984112688453 63.212620947699854 L 890.9524237511331 63.28711061471286 L 890.8047957584744 63.360936624699335 L 890.6555420535453 63.4340915951198 L 890.5046775615921 63.50656821053819 L 890.352217368938 63.578359223353345 L 890.1981767214755 63.64945745452381 L 890.042571023141 63.71985579428573 L 889.8854158343744 63.78954720286377 L 889.7267268705638 63.85852471117517 L 889.5665200004732 63.92678142152658 L 889.4048112446563 63.994310508303826 L 889.2416167738539 64.06110521865452 L 889.076952907377 64.12715887316328 L 888.9108361114749 64.19246486651971 L 888.7432829976889 64.25701666817889 L 888.5743103211909 64.32080782301445 L 888.4039349791075 64.38383195196405 L 888.232174008831 64.44608275266734 L 888.0590445863153 64.5075540000961 L 887.8845640243584 64.56823954717684 L 887.7087497708711 64.62813332540541 L 887.5316194071322 64.6872293454539 L 887.3531906460305 64.74552169776953 L 887.1734813302935 64.80300455316568 L 886.9925094307029 64.8596721634047 L 886.8102930442977 64.91551886177277 L 886.6268503925651 64.97053906364663 L 886.442199819617 65.0247272670519 L 886.256359790357 65.07807805321343 L 886.0693488886333 65.13058608709704 L 885.8811858153799 65.18224611794311 L 885.6918893867477 65.23305297979161 L 885.5014785322215 65.28300159199867 L 885.3099722927282 65.33208695974473 L 885.1173898187322 65.38030417453389 L 884.9237503683204 65.42764841468485 L 884.7290733052764 65.47411494581308 L 884.5333780971444 65.51969912130417 L 884.3366843132819 65.56439638277854 L 884.1390116229037 65.60820226054732 L 883.9403797931138 65.65111237405922 L 883.74080868693 65.69312243233865 L 883.5403182612963 65.73422823441479 L 883.3389285650883 65.7744256697417 L 883.1366597371078 65.81371071860933 L 882.933532004069 65.85207945254552 L 882.729565678576 65.88952803470889 L 882.5247811570914 65.9260527202724 L 882.3191989178965 65.96164985679792 L 882.1128395190442 65.99631588460149 L 881.9057235963022 66.03004733710921 L 881.6978718610902 66.06284084120392 L 881.4893050984086 66.09469311756257 L 881.2800441647598 66.12560098098405 L 881.0701099860628 66.15556134070776 L 880.8595235555606 66.18457120072271 L 880.6483059317205 66.21262766006708 L 880.4364782361292 66.23972791311832 L 880.2240616513797 66.26586924987369 L 880.0110774189532 66.2910490562213 L 879.7975468370955 66.31526481420151 L 879.5834912586871 66.3385141022587 L 879.3689320891073 66.36079459548343 L 879.1538907840943 66.38210406584494 L 878.9383888475993 66.40244038241397 L 878.7224478296365 66.42180151157581 L 878.5060893241276 66.44018551723366 L 878.289334966743 66.45759056100228 L 878.0722064327377 66.4740149023918 L 877.8547254347843 66.48945689898177 L 877.6369137208013 66.5039150065854 L 877.4187930717785 66.51738777940398 L 877.200385299599 66.52987387017144 L 876.9817122448583 66.54137203028912 L 876.7627957746793 66.55188110995061 L 876.5436577805268 66.56140005825667 L 876.3243201760175 66.5699279233204 L 876.1048048947292 66.57746385236243 L 875.885133888007 66.58400709179611 L 875.6653291227685 66.58955698730296 L 875.4454125793071 66.59411298389804 L 875.2254062490938 66.59767462598552 L 875.0053321325785 66.60024155740412 L 874.7852122369892 66.60181352146286 L 874.565068574132 66.60239036096665 L 874.3449231581901 66.601972018232 L 874.1247980035213 66.60055853509284 L 873.9047151224578 66.59815005289633 L 873.6846965231041 66.59474681248865 L 873.464764207137 66.59034915419102 L 873.2449401676048 66.5849575177656 L 873.0252463867282 66.57857244237155 L 872.8057048337022 66.57119456651108 L 872.5863374624992 66.56282462796563 L 872.3671662096734 66.55346346372208 L 872.1482129921677 66.54311200988904 L 871.9294997051211 66.5317713016033 L 871.7110482196802 66.5194424729262 L 871.4928803808115 66.50612675673037 L 871.275018005117 66.4918254845763 L 871.0574828786528 66.47654008657929 L 870.8402967547502 66.46027209126643 L 870.6234813518406 66.44302312542368 L 870.4070583512837 66.42479491393324 L 870.1910493951991 66.40558927960109 L 869.9754760843026 66.38540814297464 L 869.7603599757454 66.36425352215073 L 869.5457225809593 66.34212753257384 L 869.3315853635046 66.31903238682447 L 869.1179697369249 66.29497039439796 L 868.9048970626048 66.26994396147349 L 868.6923886476341 66.2439555906735 L 868.4804657426772 66.21700788081341 L 868.2691495398481 66.18910352664176 L 868.0584611705908 66.1602453185707 L 867.8484217035669 66.13043614239702 L 867.6390521425478 66.09967897901345 L 867.4303734243153 66.06797690411072 L 867.2224064165674 66.03533308786992 L 867.0151719158314 66.00175079464545 L 866.8086906453847 65.96723338263864 L 866.6029832531823 65.93178430356194 L 866.398070309792 65.89540710229372 L 866.1939723063375 65.85810541652378 L 865.9907096524489 65.81988297638962 L 865.7883026742222 65.7807436041034 L 865.5867716121867 65.74069121356973 L 865.3861366192805 65.69972980999431 L 865.1864177588358 65.65786348948332 L 864.9876350025721 65.61509643863396 L 864.7898082285996 65.57143293411565 L 864.5929572194306 65.52687734224247 L 864.3971016600021 65.48143411853648 L 864.2022611357067 65.43510780728218 L 864.0084551304348 65.38790304107208 L 863.815703024625 65.33982454034347 L 863.6240240933274 65.29087711290636 L 863.4334375042756 65.2410656534627 L 863.2439623159694 65.19039514311692 L 863.05561747577 65.13887064887784 L 862.8684218180042 65.08649732315195 L 862.6823940620819 65.03328040322816 L 862.4975528106237 64.97922521075414 L 862.3139165476007 64.92433715120407 L 862.1315036364862 64.86862171333819 L 861.9503323184192 64.81208446865382 L 861.7704207103806 64.75473107082834 L 861.5917868033813 64.69656725515374 L 861.414448460663 64.63759883796311 L 861.2384234159124 64.57783171604902 L 861.0637292714872 64.51727186607387 L 860.8903834966562 64.45592534397218 L 860.7184034258526 64.39379828434507 L 860.5478062569399 64.33089689984668 L 860.378609049493 64.26722748056307 L 860.2108287230917 64.20279639338311 L 860.0444820556286 64.13761008136183 L 859.8795856816321 64.0716750630761 L 859.716156090602 64.00499793197281 L 859.5542096253613 63.9375853557095 L 859.3937624804215 63.86944407548762 L 859.2348307003634 63.80058090537841 L 859.0774301782326 63.7310027316415 L 858.9215766539502 63.660716512036274 L 858.7672857127386 63.58972927512613 L 858.6145727835634 63.518048119575596 L 858.4634531375904 63.44568021344049 L 858.3139418866581 63.372632793451125 L 858.166053981767 63.29891316428863 L 858.0198042115845 63.22452869785448 L 857.8752072009656 63.149486832533334 L 857.732277409491 63.0737950724492 L 857.5910291300205 62.997460986715 L 857.4514764872646 62.92049220867569 L 857.3136334363711 62.842896435144944 L 857.1775137615302 62.76468142563545 L 857.0431310745962 62.68585500158298 L 856.9104988137257 62.60642504556425 L 856.7796302420342 62.526399500508674 L 856.6505384462697 62.44578636890406 L 856.5232363355044 62.3645937119964 L 856.3977366398432 62.28282964898372 L 856.274051909151 62.20050235620419 L 856.152194511798 62.11762006631847 L 856.0321766334224 62.0341910674865 L 855.9140102757118 61.95022370253862 L 855.7977072552036 61.86572636814137 L 855.683279202103 61.78070751395776 L 855.5707375591198 61.695175641802365 L 855.4600935803246 61.60913930479112 L 855.3513583300232 61.52260710648604 L 855.2445426816499 61.43558770003484 L 855.1396573166804 61.348089787305646 L 855.036712723564 61.26012211801682 L 854.9357191966742 61.17169348886198 L 854.8366868352795 61.08281274263036 L 854.7396255425334 60.99348876732251 L 854.6445450244844 60.90373049526153 L 854.551454789105 60.81354690219982 L 854.4603641453413 60.722947006421535 L 854.3712822021816 60.63193986784075 L 854.2842178677461 60.54053458709549 L 854.1991798483957 60.44874030463767 L 854.1161766478614 60.356566199819014 L 854.035216566394 60.26402148997322 L 853.9563076999344 60.17111542949413 L 853.8794579393033 60.07785730891038 L 853.8046749694129 59.98425645395631 L 853.7319662684977 59.89032222463943 L 853.6613391073672 59.79606401430437 L 853.5928005486788 59.70149124869363 L 853.5263574462313 59.606613385004955 L 853.4620164442792 59.511439910945654 L 853.3997839768695 59.41598034378382 L 853.3396662671969 59.32024422939662 L 853.2816693269822 59.224241141315716 L 853.2257989558713 59.127980679769905 L 853.1720607408546 59.03147247072513 L 853.1204600557087 58.93472616492187 L 853.0710020604594 58.83775143691009 L 853.0236917008649 58.74055798408177 L 852.9785337079215 58.64315552570121 L 852.9355325973913 58.54555380193307 L 852.8946926693492 58.44776257286839 L 852.8560180077541 58.3497916175486 L 852.8195124800397 58.25165073298757 L 852.7851797367288 58.15334973319199 L 852.7530232110668 58.054898448179905 L 852.7230461186793 57.95630672299779 L 852.6952514572511 57.85758441673599 L 852.6696420062246 57.75874140154287 L 852.646220326524 57.659787561637586 L 852.6249887602976 57.56073279232165 L 852.6059494306842 57.46158699898947 L 852.589104241601 57.36236009613774 L 852.574454877553 57.26306200637407 L 852.5620028034641 57.16370265942468 L 852.5517492645316 57.06429199114147 L 852.5436952861007 56.96483994250841 L 852.5378416735628 56.86535645864751 L 852.5341890122738 56.76585148782425 L 852.5327376674971 56.666334980452774 L 852.533487784366 56.56681688810091 L 852.5364392878694 56.46730716249495 L 852.5415918828592 56.367815754524536 L 852.5489450540805 56.268352613247544 L 852.558498066222 56.16892768489523 L 852.5702499639907 56.06955091187757 L 852.5841995722066 55.970232231789055 L 852.6003454959204 55.87098157641492 L 852.6186861205531 55.771808870738006 L 852.6392196120577 55.672724031946224 L 852.6619439171021 55.57373696844089 L 852.6868567632747 55.47485757884587 L 852.7139556593118 55.376095751017715 L 852.743237895346 55.27746136105691 L 852.7747005431785 55.17896427232026 L 852.8083404565706 55.08061433443455 L 852.8441542715589 54.98242138231162 L 852.8821384067919 54.884395235164845 L 852.9222890638875 54.786545695527266 L 852.9646022278138 54.68888254827129 L 853.0090736672894 54.59141555963026 L 853.0556989352075 54.49415447622183 L 853.1044733690801 54.39710902407328 L 853.1553920915045 54.30028890764895 L 853.2084500106508 54.20370380887981 L 853.2636418207716 54.10736338619524 L 853.3209620027314 54.01127727355723 L 853.3804048245603 53.91545507949698 L 853.4419643420252 53.81990638615403 L 853.505634399226 53.724640748318095 L 853.5714086292098 53.629667692473575 L 853.6392804546086 53.53499671584691 L 853.7092430882963 53.440637285456866 L 853.7812895340677 53.34659883716785 L 853.8554125873386 53.252890774746334 L 853.9316048358651 53.15952246892046 L 854.0098586604861 53.066503256443006 L 854.0901662358842 52.973842439157714 L 854.1725195313688 52.88154928306908 L 854.2569103116791 52.78963301741581 L 854.3433301378072 52.69810283374788 L 854.4317703678427 52.606967885007364 L 854.5222221578362 52.51623728461321 L 854.614676462684 52.425920105549835 L 854.7091240370328 52.33602537945989 L 854.8055554362038 52.24656209574106 L 854.9039610171374 52.15753920064718 L 855.0043309393576 52.06896559639356 L 855.1066551659558 51.980850140266824 L 855.2109234645945 51.893201643739154 L 855.317125408531 51.80602887158716 L 855.425250377659 51.71934054101541 L 855.5352875595721 51.63314532078473 L 855.6472259506436 51.5474518303453 L 855.7610543571277 51.46226863897477 L 855.8767613962785 51.37760426492128 L 855.9943354974887 51.29346717455169 L 856.113764903446 51.20986578150492 L 856.2350376713096 51.12680844585059 L 856.3581416739033 51.04430347325308 L 856.4830646009299 50.962359114140874 L 856.6097939602005 50.88098356288161 L 856.7383170788848 50.800184956962596 L 856.8686211047783 50.71997137617709 L 857.0006930075867 50.64035084181633 L 857.13451958023 50.5613313158674 L 857.2700874401622 50.48292070021704 L 857.4073830307105 50.40512683586149 L 857.5463926224302 50.32795750212234 L 857.6871023144779 50.25142041586866 L 857.8294980360017 50.17552323074529 L 857.9735655475482 50.100273536407514 L 858.1192904424861 50.025678857762045 L 858.2666581484476 49.95174665421458 L 858.4156539287846 49.878484318923874 L 858.5662628840436 49.8058991780624 L 858.7184699534542 49.733998490083756 L 858.8722599164366 49.662789444996825 L 859.0276173941226 49.59227916364677 L 859.1845268508937 49.52247469700298 L 859.3429725959351 49.45338302545394 L 859.5029387848043 49.38501105810922 L 859.6644094210159 49.3173656321086 L 859.8273683576407 49.25045351193829 L 859.9917992989208 49.18428138875455 L 860.1576858018991 49.118855879714566 L 860.3250112780636 49.054183527314706 L 860.4937589950061 48.990270798736326 L 860.6639120780956 48.927124085199026 L 860.8354535121654 48.864749701321536 L 861.0083661432152 48.80315388449026 L 861.182632680126 48.74234279423555 L 861.3582356963892 48.68232251161576 L 861.5351576318495 48.62309903860914 L 861.713380794461 48.56467829751363 L 861.8928873620558 48.50706613035466 L 862.0736593841268 48.450268298300934 L 862.2556787836223 48.394290481088326 L 862.4389273587542 48.33913827645191 L 862.6233867848176 48.28481719956619 L 862.8090386160236 48.23133268249359 L 862.9958642873439 48.17869007364124 L 863.1838451163669 48.12689463722616 L 863.3729623051664 48.07595155274883 L 863.5631969421812 48.02586591447525 L 863.7545300041061 47.976642730927495 L 863.9469423577942 47.92828692438291 L 864.1404147621706 47.88080333038186 L 864.3349278701561 47.83419669724416 L 864.530462230602 47.788471685594295 L 864.7269982902352 47.74363286789533 L 864.9245163956135 47.69968472799165 L 865.1229967950909 47.65663166066065 L 865.3224196407929 47.614477971173166 L 865.5227649906011 47.57322787486302 L 865.7240128101475 47.532885496705475 L 865.9261429748179 47.49345487090473 L 866.1291352717642 47.45493994049049 L 866.3329694019259 47.41734455692372 L 866.5376249820597 47.38067247971144 L 866.7430815467784 47.34492737603081 L 866.9493185505966 47.310112820362406 L 867.1563153699857 47.2762322941328 L 867.3640513054363 47.24328918536636 L 867.5725055835281 47.21128678834652 L 867.7816573590069 47.18022830328631 L 867.9914857168694 47.150116836008365 L 868.2019696744549 47.120955397634305 L 868.4130881835426 47.09274690428368 L 868.624820132458 47.06549417678231 L 868.8371443481824 47.03919994038023 L 869.0500395984711 47.01386682447918 L 869.2634845939767 46.98949736236963 L 869.4774579903774 46.96609399097749 L 869.6919383905118 46.94365905062039 L 869.9069043465188 46.92219478477368 L 870.1223343619818 46.901703339846044 L 870.3382068940788 46.882186764964906 L 870.5545003557364 46.86364701177149 L 870.7711931177889 46.84608593422567 L 870.9882635111405 46.82950528842056 L 871.2056898289329 46.81390673240693 L 871.4234503287154 46.79929182602737 L 871.6415232346194 46.78566203076035 L 871.8598867395361 46.77301870957403 L 872.0785190072971 46.76136312679001 L 872.2973981748578 46.750696447956834 L 872.5165023544837 46.74101973973351 L 872.7358096359395 46.732333969782786 L 872.9552980886798 46.724640006674434 L 873.1749457640423 46.717938619798346 L 873.3947306974424 46.71223047928761 L 873.6146309105699 46.70751615595155 L 873.8346244135868 46.703796121218545 L 874.0546892073262 46.701070747088984 L 874.274803285492 46.699340306098 L 874.4949446368598 46.698604971288255 L 874.715091247478 46.69886481619261 L 874.9352211028689 46.700119814826806 L 875.1553121902305 46.702369841692004 L 875.3753425006374 46.705614671787416 L 875.5952900312419 46.709853980632715 L 875.8151327874743 46.715087344300564 L 876.0348487852423 46.72131423945895 L 876.2544160531289 46.72853404342355 L 876.4738126345904 46.73674603421998 L 876.6930165901517 46.745949390656016 L 876.9120059995996 46.75614319240367 L 877.1307589641759 46.767326420091266 L 877.3492536087663 46.77949795540535 L 877.5674680840884 46.792656581202536 L 877.7853805688767 46.80680098163122 L 878.0029692720641 46.82192974226314 L 878.2202124349616 46.83804135023483 L 878.4370883334341 46.85513419439893 L 878.6535752800723 46.87320656548526 L 878.8696516263623 46.89225665627179 L 879.0852957648491 46.912282561765295 L 879.3004861312987 46.93328227939192 L 879.5152012068539 46.95525370919741 L 879.729419520186 46.97819465405708 L 879.9431196496421 47.00210281989557 L 880.1562802253875 47.026975815916224 L 880.3688799315421 47.05281115484016 L 880.5808975083125 47.07960625315501 L 880.7923117541178 47.107358431373285 L 881.0031015277094 47.136064914300285 L 881.2132457502859 47.16572283131164 L 881.4227234075998 47.19632921664036 L 881.6315135520603 47.22788100967341 L 881.8395953048265 47.260375055257796 L 882.046947857897 47.29380810401604 L 882.2535504761889 47.3281768126711 L 882.4593824996128 47.36347774438077 L 882.6644233451378 47.39970736908131 L 882.8686525088502 47.436862063840415 L 883.0720495680039 47.47493811321959 L 883.2745941830623 47.51393170964561 L 883.4762660997328 47.55383895379134 L 883.6770451509918 47.59465585496562 L 883.8769112591015 47.63637833151234 L 884.0758444376175 47.679002211218624 L 884.2738247933879 47.72252323173201 L 884.4708325285421 47.76693704098672 L 884.6668479424707 47.812239197638846 L 884.8618514337956 47.85842517151046 L 885.0558235023302 47.905490344042676 L 885.2487447510293 47.95343000875745 L 885.4405958879289 48.00223937172827 L 885.631357728075 48.05191355205951 L 885.8210111954427 48.10244758237453 L 886.0095373248432 48.15383640931242 L 886.1969172638209 48.20607489403329 L 886.3831322745376 48.25915781273222 L 886.5681637356479 48.31307985716156 L 886.7519931441595 48.36783563516181 L 886.9346021172851 48.423419671200804 L 887.1159723942792 48.479826406921255 L 887.2960858382654 48.53705020169659 L 887.4749244380495 48.59508533319502 L 887.6524703099203 48.65392599795177 L 887.8287056994388 48.71356631194938 L 888.0036129832129 48.77400031120615 L 888.1771746706598 48.835221952372535 L 888.3493734057556 48.89722511333542 L 888.5201919687702 48.96000359383039 L 888.6896132779895 49.0235511160617 L 888.857620391424 49.08786132533009 L 889.0241965085022 49.152927790668215 L 889.1893249717513 49.21874400548377 L 889.3529892684625 49.285303388210124 L 889.5151730323425 49.35259928296446 L 889.6758600451502 49.420624960213395 L 889.8350342383181 49.489373617445885 L 889.9926796945597 49.55883837985349 L 890.1487806494606 49.62901230101787 L 890.3033214930554 49.69988836360538 L 890.4562867713885 49.77145948006883 L 890.6076611880595 49.8437184933562 L 890.757429605753 49.916658177626395 L 890.9055770477521 49.99027123897176 L 891.0520886994359 50.0645503161475 L 891.1969499097613 50.13948798130782 L 891.3401461927281 50.21507674074863 L 891.4816632288273 50.29130903565699 L 891.6214868664732 50.36817724286692 L 891.7596031234186 50.44567367562176 L 891.8959981881528 50.52379058434283 L 892.0306584212832 50.602520157404335 L 892.1635703568984 50.68185452191459 L 892.2947207039158 50.76178574450325 L 892.42409634741 50.84230583211467 L 892.5516843499244 50.92340673280718 L 892.677471952765 51.00508033655831 L 892.8014465772766 51.08731847607572 L 892.9235958260997 51.17011292761402 L 893.0439074844115 51.25345541179703 L 893.1623695211463 51.33733759444579 L 893.2789700901991 51.42175108741194 L 893.3936975316103 51.506687449416525 L 893.5065403727313 51.592138186894125 L 893.6174873293719 51.6780947548422 L 893.726527306929 51.76454855767558 L 893.8336494014959 51.85149095008604 L 893.9388429009521 51.93891323790678 L 894.0420972860354 52.02680667898187 L 894.1434022313935 52.115162484040454 L 894.242747606616 52.20397181757565 L 894.3401234772485 52.293225798728116 L 894.4355201057848 52.38291550217411 L 894.5289279526418 52.47303195901802 L 894.6203376771124 52.56356615768928 L 894.7097401383004 52.65450904484346 L 894.7971263960343 52.74585152626762 L 894.882487711761 52.837584467789746 L 894.9658155494201 52.92969869619212 L 895.0471015762973 53.02218500012867 L 895.1263376638578 53.11503413104609 L 895.2035158885586 53.20823680410863 L 895.2786285326417 53.30178369912667 L 895.3516680849053 53.39566546148867 L 895.422627241455 53.48987270309661 L 895.4914989064342 53.58439600330485 L 895.558276192734 53.67922590986214 L 895.6229524226811 53.77435293985683 L 895.6855211287067 53.86976758066522 L 895.7459760539922 53.96546029090272 L 895.8043111530955 54.06142150137806 L 895.8605205925553 54.15764161605015 L 895.9145987514744 54.254111012987714 L 895.9665402220821 54.350820045331446 L 896.0163398102745 54.4477590422587 L 896.0639925361345 54.54491830995058 L 896.109493634429 54.64228813256127 L 896.1528385550861 54.739858773189646 L 896.1940229636499 54.83762047485297 L 896.233042741714 54.93556346146252 L 896.2698939873329 55.033677938801276 L 896.3045730154129 55.131954095503254 L 896.33707635808 55.23038210403468 L 896.3674007650271 55.328952121676735 L 896.3955432038387 55.42765429150978 L 896.4215008602944 55.5264787433991 L 896.4452711386501 55.62541559498185 L 896.466851661898 55.72445495265532 L 896.4862402720036 55.82358691256627 L 896.5034350301219 55.92280156160133 L 896.5184342167917 56.022088978378264 L 896.5312363321067 56.121439234238146 L 896.5418400958661 56.22084239423817 L 896.5502444477022 56.32028851814517 L 896.556448547187 56.41976766142964 L 896.5604517739156 56.51926987626014 L 896.5622537275686 56.61878521249811 M 896.5623654106973 88.31564836440002 L 896.5612646784786 88.4151657904769 L 896.5579625918945 88.5146732648941 L 896.552459481151 88.61416083698711 L 896.5447558965548 88.71361855808162 L 896.5348526084576 88.8130364824884 L 896.5227506071802 88.91240466849787 L 896.5084511029127 89.01171317937421 L 896.4919555255933 89.11095208434912 L 896.4732655247662 89.21011145961478 L 896.4523829694159 89.3091813893163 L 896.4293099477806 89.40815196654326 L 896.404048767143 89.50701329432043 L 896.3766019536002 89.60575548659742 L 896.3469722518108 89.70436866923727 L 896.3151626247203 89.80284298100389 L 896.2811762532648 89.90116857454818 L 896.2450165360532 89.99933561739272 L 896.2066870890269 90.09733429291502 L 896.1661917450989 90.19515480132921 L 896.1235345537697 90.29278736066595 L 896.0787197807228 90.3902222077507 L 896.0317519073985 90.4874495991799 L 895.9826356305448 90.58445981229544 L 895.9313758617483 90.68124314615687 L 895.8779777269433 90.77778992251145 L 895.8224465658989 90.874090486762 L 895.7647879316847 90.97013520893233 L 895.7050075901162 91.06591448463028 L 895.6431115191778 91.16141873600809 L 895.5791059084248 91.25663841272019 L 895.5129971583652 91.3515639928783 L 895.4447918798188 91.44618598400346 L 895.3744968932565 91.54049492397544 L 895.3021192281186 91.63448138197883 L 895.2276661221111 91.72813595944615 L 895.1511450204827 91.82144929099769 L 895.0725635752797 91.91441204537807 L 894.9919296445812 92.0070149263893 L 894.9092512917131 92.09924867382047 L 894.8245367844416 92.19110406437368 L 894.7377945941471 92.28257191258642 L 894.6490333949761 92.37364307175011 L 894.5582620629747 92.46430843482472 L 894.4654896752004 92.55455893534949 L 894.3707255088148 92.64438554834958 L 894.2739790401554 92.73377929123853 L 894.1752599437884 92.82273122471658 L 894.0745780915414 92.91123245366448 L 893.9719435515156 92.9992741280331 L 893.8673665870793 93.08684744372835 L 893.7608576558421 93.17394364349167 L 893.6524274086082 93.26055401777563 L 893.542086688312 93.346669905615 L 893.4298465289337 93.43228269549276 L 893.3157181543954 93.51738382620125 L 893.1997129774397 93.60196478769834 L 893.0818425984876 93.68601712195833 L 892.9621188044787 93.76953242381786 L 892.8405535676926 93.85250234181635 L 892.7171590445517 93.9349185790311 L 892.5919475744056 94.01677289390713 L 892.4649316782968 94.09805710108111 L 892.3361240577093 94.17876307220008 L 892.2055375932975 94.2588827367342 L 892.0731853435993 94.33840808278374 L 891.9390805437292 94.41733115788041 L 891.8032366040557 94.49564406978244 L 891.6656671088591 94.57333898726392 L 891.5263858149747 94.65040814089784 L 891.3854066504156 94.72684382383305 L 891.2427437129809 94.80263839256496 L 891.0984112688453 94.87778426769987 L 890.9524237511331 94.95227393471288 L 890.8047957584744 95.02609994469935 L 890.6555420535453 95.09925491511981 L 890.5046775615921 95.1717315305382 L 890.352217368938 95.24352254335335 L 890.1981767214755 95.31462077452383 L 890.042571023141 95.38501911428574 L 889.8854158343744 95.45471052286379 L 889.7267268705638 95.52368803117518 L 889.5665200004732 95.59194474152659 L 889.4048112446563 95.65947382830383 L 889.2416167738539 95.72626853865452 L 889.076952907377 95.7923221931633 L 888.9108361114749 95.85762818651972 L 888.7432829976889 95.9221799881789 L 888.5743103211909 95.98597114301445 L 888.4039349791075 96.04899527196406 L 888.232174008831 96.11124607266736 L 888.0590445863153 96.17271732009613 L 887.8845640243584 96.23340286717686 L 887.7087497708711 96.29329664540542 L 887.5316194071322 96.3523926654539 L 887.3531906460305 96.41068501776955 L 887.1734813302935 96.4681678731657 L 886.9925094307029 96.5248354834047 L 886.8102930442977 96.58068218177279 L 886.6268503925651 96.63570238364663 L 886.442199819617 96.6898905870519 L 886.256359790357 96.74324137321344 L 886.0693488886333 96.79574940709705 L 885.8811858153799 96.84740943794313 L 885.6918893867477 96.89821629979161 L 885.5014785322215 96.94816491199869 L 885.3099722927282 96.99725027974473 L 885.1173898187322 97.0454674945339 L 884.9237503683204 97.09281173468487 L 884.7290733052764 97.13927826581309 L 884.5333780971444 97.18486244130418 L 884.3366843132819 97.22955970277856 L 884.1390116229037 97.27336558054733 L 883.9403797931138 97.31627569405923 L 883.74080868693 97.35828575233866 L 883.5403182612963 97.3993915544148 L 883.3389285650883 97.43958898974171 L 883.1366597371078 97.47887403860933 L 882.933532004069 97.51724277254554 L 882.729565678576 97.5546913547089 L 882.5247811570914 97.5912160402724 L 882.3191989178965 97.62681317679792 L 882.1128395190442 97.6614792046015 L 881.9057235963022 97.69521065710921 L 881.6978718610902 97.72800416120393 L 881.4893050984086 97.75985643756258 L 881.2800441647598 97.79076430098405 L 881.0701099860628 97.82072466070777 L 880.8595235555606 97.84973452072273 L 880.6483059317205 97.8777909800671 L 880.4364782361292 97.90489123311833 L 880.2240616513797 97.93103256987371 L 880.0110774189532 97.95621237622132 L 879.7975468370955 97.98042813420153 L 879.5834912586871 98.0036774222587 L 879.3689320891073 98.02595791548345 L 879.1538907840943 98.04726738584496 L 878.9383888475993 98.06760370241399 L 878.7224478296365 98.08696483157581 L 878.5060893241276 98.10534883723366 L 878.289334966743 98.1227538810023 L 878.0722064327377 98.13917822239182 L 877.8547254347843 98.15462021898179 L 877.6369137208013 98.16907832658542 L 877.4187930717785 98.182551099404 L 877.200385299599 98.19503719017146 L 876.9817122448583 98.20653535028914 L 876.7627957746793 98.21704442995062 L 876.5436577805268 98.22656337825667 L 876.3243201760175 98.23509124332041 L 876.1048048947292 98.24262717236243 L 875.885133888007 98.24917041179611 L 875.6653291227685 98.25472030730296 L 875.4454125793071 98.25927630389805 L 875.2254062490938 98.26283794598552 L 875.0053321325785 98.26540487740414 L 874.7852122369892 98.26697684146288 L 874.565068574132 98.26755368096666 L 874.3449231581901 98.26713533823201 L 874.1247980035213 98.26572185509286 L 873.9047151224578 98.26331337289633 L 873.6846965231041 98.25991013248867 L 873.464764207137 98.25551247419104 L 873.2449401676048 98.25012083776562 L 873.0252463867282 98.24373576237157 L 872.8057048337022 98.2363578865111 L 872.5863374624992 98.22798794796564 L 872.3671662096734 98.21862678372209 L 872.1482129921677 98.20827532988906 L 871.9294997051211 98.1969346216033 L 871.7110482196802 98.18460579292622 L 871.4928803808115 98.17129007673037 L 871.275018005117 98.1569888045763 L 871.0574828786528 98.14170340657931 L 870.8402967547502 98.12543541126645 L 870.6234813518406 98.1081864454237 L 870.4070583512837 98.08995823393326 L 870.1910493951991 98.07075259960111 L 869.9754760843026 98.05057146297464 L 869.7603599757454 98.02941684215075 L 869.5457225809593 98.00729085257386 L 869.3315853635046 97.9841957068245 L 869.1179697369249 97.96013371439797 L 868.9048970626048 97.9351072814735 L 868.6923886476341 97.90911891067351 L 868.4804657426772 97.88217120081342 L 868.2691495398481 97.85426684664178 L 868.0584611705908 97.82540863857072 L 867.8484217035669 97.79559946239702 L 867.6390521425478 97.76484229901347 L 867.4303734243153 97.73314022411074 L 867.2224064165674 97.70049640786993 L 867.0151719158314 97.66691411464545 L 866.8086906453847 97.63239670263864 L 866.6029832531823 97.59694762356195 L 866.398070309792 97.56057042229372 L 866.1939723063375 97.52326873652379 L 865.9907096524489 97.48504629638963 L 865.7883026742222 97.44590692410341 L 865.5867716121867 97.40585453356975 L 865.3861366192805 97.36489312999431 L 865.1864177588358 97.32302680948334 L 864.9876350025721 97.28025975863397 L 864.7898082285996 97.23659625411567 L 864.5929572194306 97.19204066224249 L 864.3971016600021 97.14659743853649 L 864.2022611357067 97.10027112728218 L 864.0084551304348 97.05306636107208 L 863.815703024625 97.00498786034348 L 863.6240240933274 96.95604043290636 L 863.4334375042756 96.9062289734627 L 863.2439623159694 96.85555846311694 L 863.05561747577 96.80403396887786 L 862.8684218180042 96.75166064315196 L 862.6823940620819 96.69844372322818 L 862.4975528106237 96.64438853075416 L 862.3139165476007 96.58950047120409 L 862.1315036364862 96.53378503333819 L 861.9503323184192 96.47724778865383 L 861.7704207103806 96.41989439082836 L 861.5917868033813 96.36173057515376 L 861.414448460663 96.30276215796312 L 861.2384234159124 96.24299503604902 L 861.0637292714872 96.18243518607389 L 860.8903834966562 96.1210886639722 L 860.7184034258526 96.05896160434507 L 860.5478062569399 95.99606021984668 L 860.378609049493 95.93239080056308 L 860.2108287230917 95.86795971338313 L 860.0444820556286 95.80277340136185 L 859.8795856816321 95.73683838307612 L 859.716156090602 95.67016125197281 L 859.5542096253613 95.6027486757095 L 859.3937624804215 95.53460739548763 L 859.2348307003634 95.46574422537843 L 859.0774301782326 95.39616605164152 L 858.9215766539502 95.32587983203629 L 858.7672857127386 95.25489259512614 L 858.6145727835634 95.1832114395756 L 858.4634531375904 95.1108435334405 L 858.3139418866581 95.03779611345114 L 858.166053981767 94.96407648428864 L 858.0198042115845 94.88969201785449 L 857.8752072009656 94.81465015253335 L 857.732277409491 94.7389583924492 L 857.5910291300205 94.662624306715 L 857.4514764872646 94.5856555286757 L 857.3136334363711 94.50805975514496 L 857.1775137615302 94.42984474563546 L 857.0431310745962 94.351018321583 L 856.9104988137257 94.27158836556427 L 856.7796302420342 94.19156282050868 L 856.6505384462697 94.11094968890407 L 856.5232363355044 94.02975703199641 L 856.3977366398432 93.94799296898373 L 856.274051909151 93.8656656762042 L 856.152194511798 93.78278338631848 L 856.0321766334224 93.69935438748651 L 855.9140102757118 93.61538702253864 L 855.7977072552036 93.53088968814139 L 855.683279202103 93.44587083395777 L 855.5707375591198 93.36033896180237 L 855.4600935803246 93.27430262479113 L 855.3513583300232 93.18777042648605 L 855.2445426816499 93.10075102003485 L 855.1396573166804 93.01325310730566 L 855.036712723564 92.92528543801683 L 854.9357191966742 92.836856808862 L 854.8366868352795 92.74797606263037 L 854.7396255425334 92.65865208732252 L 854.6445450244844 92.56889381526153 L 854.551454789105 92.47871022219982 L 854.4603641453413 92.38811032642154 L 854.3712822021816 92.29710318784076 L 854.2842178677461 92.20569790709551 L 854.1991798483957 92.11390362463769 L 854.1161766478614 92.02172951981903 L 854.035216566394 91.92918480997322 L 853.9563076999344 91.83627874949414 L 853.8794579393033 91.74302062891039 L 853.8046749694129 91.64941977395632 L 853.7319662684977 91.55548554463944 L 853.6613391073672 91.46122733430438 L 853.5928005486788 91.36665456869365 L 853.5263574462313 91.27177670500497 L 853.4620164442792 91.17660323094567 L 853.3997839768695 91.08114366378383 L 853.3396662671969 90.98540754939663 L 853.2816693269822 90.88940446131572 L 853.2257989558713 90.79314399976991 L 853.1720607408546 90.69663579072514 L 853.1204600557087 90.59988948492189 L 853.0710020604594 90.5029147569101 L 853.0236917008649 90.40572130408178 L 852.9785337079215 90.30831884570122 L 852.9355325973913 90.21071712193307 L 852.8946926693492 90.1129258928684 L 852.8560180077541 90.01495493754861 L 852.8195124800397 89.91681405298758 L 852.7851797367288 89.81851305319199 L 852.7530232110668 89.72006176817992 L 852.7230461186793 89.6214700429978 L 852.6952514572511 89.52274773673601 L 852.6696420062246 89.42390472154288 L 852.646220326524 89.32495088163759 L 852.6249887602976 89.22589611232166 L 852.6059494306842 89.12675031898948 L 852.589104241601 89.02752341613775 L 852.574454877553 88.92822532637408 L 852.5620028034641 88.82886597942469 L 852.5517492645316 88.72945531114148 L 852.5436952861007 88.63000326250842 L 852.5378416735628 88.53051977864753 L 852.5341890122738 88.43101480782425 L 852.5327376674971 88.3314983004528" stroke-miterlimit="10" stroke-width="2.5633703640000003" stroke-dasharray=""/></g><g><g/><text fill="black" stroke="none" font-family="sans-serif" font-size="11pt" font-style="normal" font-weight="normal" text-decoration="normal" x="850.5996215478135" y="114.44694742800002" text-anchor="start" dominant-baseline="alphabetic" xml:space="preserve">Elastic</text></g></g><g><path fill="none" stroke="none"/><g><path fill="white" stroke="black" paint-order="fill stroke markers" d=" M 717.3617570911621 150.40952577000002 L 829.3115899786973 150.40952577000002 L 829.3115899786973 191.12187861 L 717.3617570911621 191.12187861 L 717.3617570911621 150.40952577000002 Z" stroke-miterlimit="10" stroke-width="2.4125838720000004" stroke-dasharray=""/></g><g><g/><text fill="black" stroke="none" font-family="sans-serif" font-size="11pt" font-style="normal" font-weight="normal" text-decoration="normal" x="733.7220914731621" y="176.04322941" text-anchor="start" dominant-baseline="alphabetic" xml:space="preserve">PlexusDDS</text></g><g><g><rect fill="white" stroke="none" x="648.4929664565811" y="151.16345823" width="4.52359476" height="19.602243960000003"/></g><text fill="black" stroke="none" font-family="sans-serif" font-size="11pt" font-style="normal" font-weight="normal" text-decoration="normal" x="650.7547638365811" y="164.73424251" text-anchor="start" dominant-baseline="alphabetic" xml:space="preserve"></text></g><g><path fill="none" stroke="black" paint-order="fill stroke markers" d=" M 584.147770582 170.76570219 L 704.9470025831621 170.76570219" stroke-miterlimit="10" stroke-width="1.2565541" stroke-dasharray=""/><g transform="translate(717.3617570911621,170.76570219) translate(-717.3617570911621,-170.76570219)"><path fill="black" stroke="none" paint-order="stroke fill markers" d=" M 704.796216091162 164.48293169000002 L 717.3617570911621 170.76570219 L 704.796216091162 177.04847269 Z"/></g></g><path fill="white" stroke="black" paint-order="fill stroke markers" d=" M 692.8098967166973 215.021537592 L 840.2926660731621 215.021537592 L 853.8634503531621 228.59232187199999 L 853.8634503531621 279.859729152 L 692.8098967166973 279.859729152 L 692.8098967166973 215.021537592 M 840.2926660731621 215.021537592 L 840.2926660731621 228.59232187199999 L 853.8634503531621 228.59232187199999" stroke-miterlimit="10" stroke-width="1.2565541" stroke-dasharray=""/><g><text fill="black" stroke="none" font-family="sans-serif" font-size="11pt" font-style="normal" font-weight="normal" text-decoration="normal" x="713.9200055966973" y="236.13164647199997" text-anchor="start" dominant-baseline="alphabetic" xml:space="preserve">/offsets</text><text fill="black" stroke="none" font-family="sans-serif" font-size="11pt" font-style="normal" font-weight="normal" text-decoration="normal" x="713.9200055966973" y="251.21029567199997" text-anchor="start" dominant-baseline="alphabetic" xml:space="preserve">/queryLog</text><text fill="black" stroke="none" font-family="sans-serif" font-size="11pt" font-style="normal" font-weight="normal" text-decoration="normal" x="713.9200055966973" y="266.288944872" text-anchor="start" dominant-baseline="alphabetic" xml:space="preserve">/queryResultLog</text></g><g><g><rect fill="white" stroke="none" x="340.6769358490703" y="302.477702952" width="222.8152665129297" height="19.602243960000003"/></g><text fill="black" stroke="none" font-family="sans-serif" font-size="11pt" font-style="normal" font-weight="normal" text-decoration="normal" x="342.9387332290703" y="316.04848723200007" text-anchor="start" dominant-baseline="alphabetic" xml:space="preserve">register/getPlexusContainerId</text></g><g><path fill="none" stroke="black" paint-order="fill stroke markers" d=" M 571.733016074 322.079946912 L 332.4361221370703 322.079946912" stroke-miterlimit="10" stroke-width="1.2565541" stroke-dasharray=""/><g transform="translate(320.0213676290703,322.079946912) translate(-320.0213676290703,-322.079946912)"><path fill="black" stroke="none" paint-order="stroke fill markers" d=" M 332.5869086290703 315.797176412 L 320.0213676290703 322.079946912 L 332.5869086290703 328.36271741200005 Z"/><g transform="translate(584.147770582,322.079946912) translate(-584.147770582,-322.079946912)"><path fill="black" stroke="none" paint-order="stroke fill markers" d=" M 571.582229582 315.797176412 L 584.147770582 322.079946912 L 571.582229582 328.36271741200005 Z"/></g></g></g><g><g><rect fill="white" stroke="none" x="337.8644358490703" y="344.69792071200004" width="228.4402665129297" height="19.602243960000003"/></g><text fill="black" stroke="none" font-family="sans-serif" font-size="11pt" font-style="normal" font-weight="normal" text-decoration="normal" x="340.1262332290703" y="358.26870499200004" text-anchor="start" dominant-baseline="alphabetic" xml:space="preserve">register/getTrackerContainerId</text></g><g><path fill="none" stroke="black" paint-order="fill stroke markers" d=" M 571.733016074 364.30016467200005 L 332.4361221370703 364.30016467200005" stroke-miterlimit="10" stroke-width="1.2565541" stroke-dasharray=""/><g transform="translate(320.0213676290703,364.30016467200005) translate(-320.0213676290703,-364.30016467200005)"><path fill="black" stroke="none" paint-order="stroke fill markers" d=" M 332.5869086290703 358.017394172 L 320.0213676290703 364.30016467200005 L 332.5869086290703 370.5829351720001 Z"/><g transform="translate(584.147770582,364.30016467200005) translate(-584.147770582,-364.30016467200005)"><path fill="black" stroke="none" paint-order="stroke fill markers" d=" M 571.582229582 358.017394172 L 584.147770582 364.30016467200005 L 571.582229582 370.5829351720001 Z"/></g></g></g><g><g><rect fill="white" stroke="none" x="601.9908388020001" y="386.91813847200007" width="153.5027665129297" height="19.602243960000003"/></g><text fill="black" stroke="none" font-family="sans-serif" font-size="11pt" font-style="normal" font-weight="normal" text-decoration="normal" x="604.2526361820001" y="400.4889227520001" text-anchor="start" dominant-baseline="alphabetic" xml:space="preserve">registerQueryBinder</text></g><g><path fill="none" stroke="black" paint-order="fill stroke markers" d=" M 584.147770582 406.5203824320001 L 760.9219190269297 406.5203824320001" stroke-miterlimit="10" stroke-width="1.2565541" stroke-dasharray=""/><g transform="translate(773.3366735349297,406.5203824320001) translate(-773.3366735349297,-406.5203824320001)"><path fill="black" stroke="none" paint-order="stroke fill markers" d=" M 760.7711325349296 400.23761193200005 L 773.3366735349297 406.5203824320001 L 760.7711325349296 412.8031529320001 Z"/></g></g><g><g><rect fill="white" stroke="none" x="140.88387640200003" y="429.1383562320001" width="161.29442300707032" height="19.602243960000003"/></g><text fill="black" stroke="none" font-family="sans-serif" font-size="11pt" font-style="normal" font-weight="normal" text-decoration="normal" x="143.14567378200002" y="442.7091405120001" text-anchor="start" dominant-baseline="alphabetic" xml:space="preserve">getPlexusContainerId</text></g><g><path fill="none" stroke="black" paint-order="fill stroke markers" d=" M 320.0213676290703 448.7406001920001 L 135.45556269000002 448.7406001920001" stroke-miterlimit="10" stroke-width="1.2565541" stroke-dasharray=""/><g transform="translate(123.040808182,448.7406001920001) translate(-123.040808182,-448.7406001920001)"><path fill="black" stroke="none" paint-order="stroke fill markers" d=" M 135.606349182 442.4578296920001 L 123.040808182 448.7406001920001 L 135.606349182 455.0233706920001 Z"/></g></g><g><g><rect fill="white" stroke="none" x="348.7706934784648" y="471.3585739920001" width="198.83609476" height="19.602243960000003"/></g><text fill="black" stroke="none" font-family="sans-serif" font-size="11pt" font-style="normal" font-weight="normal" text-decoration="normal" x="351.0324908584648" y="484.9293582720002" text-anchor="start" dominant-baseline="alphabetic" xml:space="preserve">registerQueryResultBinder</text></g><g><path fill="none" stroke="black" paint-order="fill stroke markers" d=" M 123.040808182 490.9608179520001 L 760.9219190269297 490.9608179520001" stroke-miterlimit="10" stroke-width="1.2565541" stroke-dasharray=""/><g transform="translate(773.3366735349297,490.9608179520001) translate(-773.3366735349297,-490.9608179520001)"><path fill="black" stroke="none" paint-order="stroke fill markers" d=" M 760.7711325349296 484.6780474520001 L 773.3366735349297 490.9608179520001 L 760.7711325349296 497.24358845200015 Z"/></g></g><g><g><rect fill="white" stroke="none" x="47.48660202644191" y="513.5787917520001" width="53.252762698232424" height="19.602243960000003"/></g><text fill="black" stroke="none" font-family="sans-serif" font-size="11pt" font-style="normal" font-weight="normal" text-decoration="normal" x="49.748399406441905" y="527.1495760320001" text-anchor="start" dominant-baseline="alphabetic" xml:space="preserve">search</text></g><g><path fill="none" stroke="black" paint-order="fill stroke markers" d=" M 25.18515856911621 533.1810357120002 L 110.626053674 533.1810357120002" stroke-miterlimit="10" stroke-width="1.2565541" stroke-dasharray=""/><g transform="translate(123.040808182,533.1810357120002) translate(-123.040808182,-533.1810357120002)"><path fill="black" stroke="none" paint-order="stroke fill markers" d=" M 110.47526718200001 526.8982652120002 L 123.040808182 533.1810357120002 L 110.47526718200001 539.4638062120001 Z"/></g></g><g><g><rect fill="white" stroke="none" x="405.99986141669723" y="555.7990095120001" width="84.37775888353515" height="19.602243960000003"/></g><text fill="black" stroke="none" font-family="sans-serif" font-size="11pt" font-style="normal" font-weight="normal" text-decoration="normal" x="408.26165879669725" y="569.3697937920001" text-anchor="start" dominant-baseline="alphabetic" xml:space="preserve">sendQuery</text></g><g><path fill="none" stroke="black" paint-order="fill stroke markers" d=" M 123.040808182 575.4012534720001 L 760.9219190269297 575.4012534720001" stroke-miterlimit="10" stroke-width="1.2565541" stroke-dasharray=""/><g transform="translate(773.3366735349297,575.4012534720001) translate(-773.3366735349297,-575.4012534720001)"><path fill="black" stroke="none" paint-order="stroke fill markers" d=" M 760.7711325349296 569.1184829720002 L 773.3366735349297 575.4012534720001 L 760.7711325349296 581.6840239720001 Z"/></g></g><g><g><rect fill="white" stroke="none" x="633.3345926166974" y="598.0192272720001" width="90.81525888353515" height="19.602243960000003"/></g><text fill="black" stroke="none" font-family="sans-serif" font-size="11pt" font-style="normal" font-weight="normal" text-decoration="normal" x="635.5963899966973" y="611.5900115520001" text-anchor="start" dominant-baseline="alphabetic" xml:space="preserve">notifyQuery</text></g><g><path fill="none" stroke="black" paint-order="fill stroke markers" d=" M 773.3366735349297 617.6214712320001 L 596.56252509 617.6214712320001" stroke-miterlimit="10" stroke-width="1.2565541" stroke-dasharray=""/><g transform="translate(584.147770582,617.6214712320001) translate(-584.147770582,-617.6214712320001)"><path fill="black" stroke="none" paint-order="stroke fill markers" d=" M 596.7133115820001 611.3387007320001 L 584.147770582 617.6214712320001 L 596.7133115820001 623.9042417320001 Z"/></g></g><g><g><rect fill="white" stroke="none" x="601.9908388020001" y="640.239445032" width="90.12775888353515" height="19.602243960000003"/></g><text fill="black" stroke="none" font-family="sans-serif" font-size="11pt" font-style="normal" font-weight="normal" text-decoration="normal" x="604.2526361820001" y="653.810229312" text-anchor="start" dominant-baseline="alphabetic" xml:space="preserve">parseQuery</text></g><g><path fill="none" stroke="black" paint-order="fill stroke markers" d=" M 584.147770582 659.8416889920001 L 644.462367382 659.8416889920001 L 644.462367382 679.4439329520001 L 596.56252509 679.4439329520001" stroke-miterlimit="10" stroke-width="1.2565541" stroke-dasharray=""/><g transform="translate(584.147770582,679.4439329520001) translate(-584.147770582,-679.4439329520001)"><path fill="black" stroke="none" paint-order="stroke fill markers" d=" M 596.7133115820001 673.1611624520001 L 584.147770582 679.4439329520001 L 596.7133115820001 685.726703452 Z"/></g></g><g><g><rect fill="white" stroke="none" x="675.5025246385811" y="702.061906752" width="107.69025888353515" height="19.602243960000003"/></g><text fill="black" stroke="none" font-family="sans-serif" font-size="11pt" font-style="normal" font-weight="normal" text-decoration="normal" x="677.7643220185811" y="715.632691032" text-anchor="start" dominant-baseline="alphabetic" xml:space="preserve">performQuery</text></g><g><path fill="none" stroke="black" paint-order="fill stroke markers" d=" M 596.56252509 721.664150712 L 862.1327830706973 721.664150712" stroke-miterlimit="10" stroke-width="1.2565541" stroke-dasharray=""/><g transform="translate(874.5475375786973,721.664150712) translate(-874.5475375786973,-721.664150712)"><path fill="black" stroke="none" paint-order="stroke fill markers" d=" M 861.9819965786972 715.3813802120001 L 874.5475375786973 721.664150712 L 861.9819965786972 727.946921212 Z"/><g transform="translate(584.147770582,721.664150712) translate(-584.147770582,-721.664150712)"><path fill="black" stroke="none" paint-order="stroke fill markers" d=" M 596.7133115820001 715.3813802120001 L 584.147770582 721.664150712 L 596.7133115820001 727.946921212 Z"/></g></g></g><g><g><rect fill="white" stroke="none" x="610.0637605549298" y="744.282124512" width="137.35692300707032" height="19.602243960000003"/></g><text fill="black" stroke="none" font-family="sans-serif" font-size="11pt" font-style="normal" font-weight="normal" text-decoration="normal" x="612.3255579349297" y="757.852908792" text-anchor="start" dominant-baseline="alphabetic" xml:space="preserve">sendQueryResults</text></g><g><path fill="none" stroke="black" paint-order="fill stroke markers" d=" M 584.147770582 763.884368472 L 760.9219190269297 763.884368472" stroke-miterlimit="10" stroke-width="1.2565541" stroke-dasharray=""/><g transform="translate(773.3366735349297,763.884368472) translate(-773.3366735349297,-763.884368472)"><path fill="black" stroke="none" paint-order="stroke fill markers" d=" M 760.7711325349296 757.601597972 L 773.3366735349297 763.884368472 L 760.7711325349296 770.167138972 Z"/></g></g><g><g><rect fill="white" stroke="none" x="376.29152935492965" y="786.502342272" width="143.79442300707032" height="19.602243960000003"/></g><text fill="black" stroke="none" font-family="sans-serif" font-size="11pt" font-style="normal" font-weight="normal" text-decoration="normal" x="378.55332673492967" y="800.073126552" text-anchor="start" dominant-baseline="alphabetic" xml:space="preserve">notifyQueryResults</text></g><g><path fill="none" stroke="black" paint-order="fill stroke markers" d=" M 773.3366735349297 806.104586232 L 135.45556269000002 806.104586232" stroke-miterlimit="10" stroke-width="1.2565541" stroke-dasharray=""/><g transform="translate(123.040808182,806.104586232) translate(-123.040808182,-806.104586232)"><path fill="black" stroke="none" paint-order="stroke fill markers" d=" M 135.606349182 799.821815732 L 123.040808182 806.104586232 L 135.606349182 812.387356732 Z"/></g></g><g><g><rect fill="white" stroke="none" x="47.27826996467433" y="828.7225600319999" width="53.66942682176758" height="19.602243960000003"/></g><text fill="black" stroke="none" font-family="sans-serif" font-size="11pt" font-style="normal" font-weight="normal" text-decoration="normal" x="49.54006734467433" y="842.2933443119999" text-anchor="start" dominant-baseline="alphabetic" xml:space="preserve">results</text></g><g><path fill="none" stroke="black" paint-order="fill stroke markers" d=" M 123.040808182 848.3248039919999 L 37.59991307711621 848.3248039919999" stroke-miterlimit="10" stroke-width="1.2565541" stroke-dasharray=""/><g transform="translate(25.18515856911621,848.3248039919999) translate(-25.18515856911621,-848.3248039919999)"><path fill="black" stroke="none" paint-order="stroke fill markers" d=" M 37.750699569116215 842.042033492 L 25.18515856911621 848.3248039919999 L 37.750699569116215 854.6075744919999 Z"/></g></g></g><g/><g/><g/><g/><g/></g></svg>